<svg width="728" height="360" viewBox="0 0 728 360" fill="none" xmlns="http://www.w3.org/2000/svg">
<g clip-path="url(#clip0_2546_8868)">
<path d="M21.2541 817.128C18.9338 816.564 16.6384 815.957 14.3683 815.307L13.8181 817.23C8.22508 815.63 2.78348 813.775 -2.49921 811.683L-1.76288 809.823C-6.20146 808.066 -10.5262 806.139 -14.7327 804.053L-15.6212 805.845C-20.8144 803.269 -25.8298 800.454 -30.6589 797.418L-29.5945 795.725C-33.6221 793.193 -37.5187 790.506 -41.2793 787.674L-42.4824 789.272C-47.0985 785.796 -51.5119 782.105 -55.7138 778.219L-54.3559 776.751C-57.842 773.527 -61.1808 770.168 -64.367 766.685L-65.8427 768.035C-69.7323 763.783 -73.3971 759.349 -76.8277 754.753L-75.225 753.557C-78.0616 749.757 -80.7363 745.845 -83.2437 741.835L-84.9396 742.895C-87.989 738.017 -90.7936 732.993 -93.3439 727.846L-91.5518 726.958C-93.6543 722.715 -95.582 718.386 -97.3294 713.985L-99.1883 714.723C-101.308 709.384 -103.165 703.939 -104.751 698.409L-102.828 697.857C-104.132 693.31 -105.25 688.706 -106.177 684.055L-108.138 684.446C-109.259 678.822 -110.103 673.132 -110.661 667.396L-108.67 667.202C-109.127 662.504 -109.391 657.775 -109.454 653.027L-111.454 653.054C-111.531 647.332 -111.322 641.582 -110.817 635.826L-108.825 636C-108.414 631.311 -107.805 626.617 -106.992 621.929L-108.963 621.588C-107.989 615.967 -106.726 610.356 -105.166 604.773L-103.239 605.312C-101.976 600.79 -100.515 596.286 -98.8516 591.811L-100.726 591.114C-98.7471 585.789 -96.4852 580.503 -93.9332 575.275L-92.1359 576.153C-91.1001 574.031 -90.0159 571.918 -88.8827 569.817L-85.287 563.147L-87.0475 562.198L-78.4177 546.191L-76.6573 547.14L-69.4659 533.801L-71.2263 532.852L-62.5966 516.845L-60.8362 517.794L-53.6447 504.455L-55.4052 503.506L-46.7755 487.499L-45.015 488.448L-37.8236 475.109L-39.584 474.16L-30.9543 458.153L-29.1938 459.102L-22.0024 445.763L-23.7629 444.814L-15.1331 428.807L-13.3727 429.756L-6.18126 416.417L-7.94172 415.468L0.688002 399.461L2.44846 400.41L9.63991 387.071L7.87945 386.121L16.5092 370.114L18.2696 371.064L25.4611 357.724L23.7006 356.775L32.3303 340.768L34.0908 341.718L41.2822 328.378L39.5218 327.429L48.1515 311.422L49.9119 312.371L57.1034 299.032L55.3429 298.083L63.9726 282.076L65.7331 283.025L72.9245 269.686L71.1641 268.737L79.7938 252.73L81.5542 253.679L88.7457 240.34L86.9852 239.391L95.6149 223.384L97.3754 224.333L104.567 210.994L102.806 210.045L111.436 194.038L113.197 194.987L116.792 188.318C118.087 185.917 119.434 183.555 120.832 181.233L119.118 180.202C122.544 174.513 126.272 169.062 130.275 163.866L131.86 165.086C135.19 160.764 138.712 156.62 142.412 152.664L140.951 151.298C145.472 146.464 150.254 141.908 155.27 137.646L156.565 139.17C160.712 135.646 165.02 132.326 169.474 129.22L168.33 127.579C173.743 123.804 179.368 120.34 185.176 117.206L186.126 118.967C190.905 116.388 195.809 114.036 200.822 111.919L200.044 110.077C206.108 107.517 212.329 105.298 218.681 103.437L219.243 105.357C224.441 103.834 229.727 102.554 235.086 101.526L234.709 99.5619C241.151 98.3264 247.696 97.4515 254.318 96.9537L254.468 98.9481C257.171 98.7449 259.886 98.6053 262.613 98.5304L270.046 98.3261L269.991 96.3268L287.83 95.8365L287.885 97.8357L302.751 97.4271L302.696 95.4278L320.535 94.9375L320.59 96.9367L335.456 96.5281L335.401 94.5289L353.241 94.0385L353.296 96.0378L368.162 95.6291L368.107 93.6299L385.946 93.1396L386.001 95.1388L400.867 94.7302L400.812 92.7309L418.651 92.2406L418.706 94.2398L433.572 93.8312L433.517 91.832L451.357 91.3416L451.412 93.3409L466.278 92.9323L466.223 90.933L484.062 90.4427L484.117 92.4419L498.983 92.0333L498.928 90.0341L516.767 89.5437L516.822 91.543L531.688 91.1343L531.633 89.1351L549.473 88.6447L549.528 90.644L564.394 90.2354L564.339 88.2361L582.178 87.7458L582.233 89.745L597.099 89.3364L597.044 87.3372L614.883 86.8468L614.938 88.8461L629.804 88.4374L629.749 86.4382L647.589 85.9478L647.643 87.9471L662.51 87.5385L662.455 85.5392L680.294 85.0489L680.349 87.0481L695.215 86.6395L695.16 84.6403L712.999 84.1499L713.054 86.1492L727.92 85.7405L727.865 83.7413L745.705 83.2509L745.759 85.2502L760.626 84.8416L760.571 82.8423L778.41 82.352L778.465 84.3512L793.331 83.9426L793.276 81.9434L811.115 81.453L811.17 83.4523L826.036 83.0437L825.981 81.0444L843.82 80.5541L843.875 82.5533L851.308 82.349C853.705 82.2831 856.089 82.2661 858.46 82.2969L858.486 80.297C864.327 80.3729 870.087 80.736 875.756 81.3717L875.533 83.3592C880.297 83.8935 884.994 84.6225 889.618 85.5374L890.007 83.5754C895.716 84.7051 901.316 86.115 906.793 87.7889L906.208 89.7015C910.776 91.0978 915.258 92.6798 919.645 94.4381L920.389 92.5817C925.775 94.7402 931.019 97.1611 936.109 99.8271L935.181 101.599C939.405 103.811 943.52 106.193 947.519 108.737L948.593 107.049C953.475 110.154 958.186 113.495 962.712 117.054L961.476 118.626C965.218 121.57 968.832 124.664 972.309 127.899L973.671 126.435C977.9 130.369 981.928 134.509 985.742 138.836L984.241 140.158C987.385 143.725 990.381 147.421 993.22 151.235L994.825 150.041C998.269 154.667 1001.49 159.465 1004.46 164.416L1002.75 165.446C1005.19 169.517 1007.47 173.693 1009.58 177.964L1011.37 177.079C1013.92 182.243 1016.21 187.544 1018.24 192.963L1016.36 193.664C1018.02 198.103 1019.5 202.623 1020.79 207.212L1022.72 206.671C1024.27 212.202 1025.56 217.835 1026.55 223.55L1024.58 223.894C1025.4 228.55 1026.02 233.262 1026.44 238.02L1028.43 237.844C1028.93 243.548 1029.15 249.319 1029.08 255.139L1027.08 255.112C1027.02 259.826 1026.76 264.573 1026.29 269.344L1028.29 269.537C1027.73 275.214 1026.9 280.926 1025.76 286.656L1023.8 286.268C1023.34 288.593 1022.83 290.922 1022.27 293.253L1020.48 300.715L1022.42 301.182L1018.12 319.09L1016.17 318.623L1012.58 333.546L1014.53 334.013L1010.22 351.921L1008.28 351.454L1004.69 366.377L1006.64 366.844L1002.33 384.752L1000.39 384.285L996.8 399.208L998.744 399.675L994.439 417.583L992.495 417.116L988.907 432.039L990.852 432.506L986.547 450.414L984.602 449.947L981.015 464.87L982.96 465.337L978.655 483.245L976.71 482.778L973.123 497.701L975.067 498.168L970.762 516.076L968.818 515.609L965.23 530.532L967.175 530.999L962.87 548.907L960.925 548.44L957.338 563.363L959.282 563.83L954.977 581.738L953.033 581.271L949.445 596.194L951.39 596.661L947.085 614.569L945.14 614.102L941.553 629.025L943.498 629.492L939.193 647.4L937.248 646.933L933.661 661.856L935.605 662.323L931.3 680.231L929.356 679.764L925.768 694.687L927.713 695.154L923.408 713.062L921.463 712.595L917.876 727.518L919.821 727.985L915.516 745.893L913.571 745.426L909.984 760.349L911.928 760.816L907.623 778.724L905.679 778.257L902.091 793.18L904.036 793.647L899.731 811.555L897.786 811.088L894.199 826.011L896.143 826.478L891.838 844.386L889.894 843.919L888.1 851.38C887.501 853.872 886.85 856.339 886.149 858.778L888.071 859.33C886.344 865.338 884.316 871.185 882.006 876.857L880.154 876.103C878.218 880.858 876.083 885.488 873.76 889.988L875.537 890.906C872.681 896.438 869.545 901.775 866.152 906.903L864.484 905.799C861.66 910.066 858.656 914.186 855.485 918.152L857.047 919.401C853.169 924.249 849.046 928.867 844.699 933.243L843.28 931.833C839.682 935.455 835.929 938.908 832.035 942.184L833.322 943.714C828.583 947.701 823.637 951.429 818.51 954.882L817.393 953.223C813.165 956.07 808.812 958.728 804.349 961.189L805.314 962.94C799.901 965.924 794.326 968.621 788.614 971.017L787.841 969.172C783.148 971.14 778.362 972.902 773.496 974.449L774.102 976.355C768.225 978.223 762.233 979.782 756.149 981.017L755.751 979.057C750.775 980.067 745.738 980.858 740.652 981.421L740.872 983.409C734.761 984.086 728.581 984.438 722.354 984.451L722.35 982.452C717.286 982.463 712.191 982.247 707.078 981.798L706.902 983.79C700.801 983.254 694.673 982.388 688.54 981.18L688.927 979.218C686.437 978.728 683.945 978.18 681.455 977.575L674.31 975.839L673.837 977.782L656.689 973.615L657.161 971.671L642.871 968.198L642.399 970.142L625.251 965.974L625.723 964.031L611.433 960.558L610.961 962.501L593.813 958.334L594.285 956.39L579.995 952.918L579.523 954.861L562.375 950.694L562.847 948.75L548.557 945.277L548.085 947.221L530.937 943.053L531.409 941.11L517.119 937.637L516.647 939.58L499.499 935.413L499.971 933.469L485.681 929.997L485.208 931.94L468.06 927.773L468.533 925.829L454.243 922.356L453.77 924.3L436.622 920.132L437.095 918.189L422.805 914.716L422.332 916.659L405.184 912.492L405.656 910.549L391.366 907.076L390.894 909.019L373.746 904.852L374.218 902.908L359.928 899.435L359.456 901.379L342.308 897.211L342.78 895.268L328.49 891.795L328.018 893.738L310.87 889.571L311.342 887.628L297.052 884.155L296.58 886.098L279.432 881.931L279.904 879.987L265.614 876.514L265.142 878.458L247.994 874.29L248.466 872.347L234.176 868.874L233.704 870.817L216.555 866.65L217.028 864.707L202.738 861.234L202.265 863.177L185.117 859.01L185.59 857.066L171.3 853.593L170.827 855.537L153.679 851.369L154.151 849.426L139.861 845.953L139.389 847.896L122.241 843.729L122.713 841.786L108.423 838.313L107.951 840.256L90.803 836.089L91.2753 834.145L76.9852 830.672L76.5129 832.616L59.3648 828.448L59.8371 826.505L45.547 823.032L45.0747 824.976L27.9267 820.808L28.399 818.865L21.2541 817.128Z" stroke="url(#paint0_linear_2546_8868)" stroke-width="4" stroke-dasharray="15 18"/>
</g>
<defs>
<linearGradient id="paint0_linear_2546_8868" x1="810.5" y1="-113" x2="608.695" y2="579.062" gradientUnits="userSpaceOnUse">
<stop stop-color="#FFD028"/>
<stop offset="1" stop-color="#FFD028" stop-opacity="0"/>
</linearGradient>
<clipPath id="clip0_2546_8868">
<rect width="728" height="360" fill="white"/>
</clipPath>
</defs>
</svg>
