<svg width="306" height="87" viewBox="0 0 306 87" fill="none" xmlns="http://www.w3.org/2000/svg">
<path d="M55.3139 36.408C53.2286 36.408 51.5739 36.034 50.3499 35.286C49.1486 34.5153 48.2986 33.45 47.7999 32.09C47.3013 30.7073 47.0519 29.0867 47.0519 27.228V17.3C47.0519 15.396 47.3013 13.764 47.7999 12.404C48.2986 11.0213 49.1486 9.956 50.3499 9.208C51.5739 8.46 53.2286 8.086 55.3139 8.086C57.3539 8.086 58.9406 8.426 60.0739 9.106C61.2299 9.76333 62.0459 10.6927 62.5219 11.894C62.9979 13.0953 63.2359 14.478 63.2359 16.042V18.422H57.2859V15.668C57.2859 15.124 57.2519 14.6027 57.1839 14.104C57.1386 13.6053 56.9799 13.1973 56.7079 12.88C56.4359 12.54 55.9713 12.37 55.3139 12.37C54.6793 12.37 54.2033 12.54 53.8859 12.88C53.5913 13.22 53.3986 13.6507 53.3079 14.172C53.2399 14.6707 53.2059 15.2033 53.2059 15.77V28.724C53.2059 29.336 53.2513 29.9027 53.3419 30.424C53.4553 30.9227 53.6593 31.3307 53.9539 31.648C54.2713 31.9427 54.7246 32.09 55.3139 32.09C55.9486 32.09 56.4019 31.9313 56.6739 31.614C56.9459 31.274 57.1159 30.8433 57.1839 30.322C57.2519 29.8007 57.2859 29.268 57.2859 28.724V25.834H63.2359V28.214C63.2359 29.778 62.9979 31.1833 62.5219 32.43C62.0686 33.654 61.2639 34.6287 60.1079 35.354C58.9746 36.0567 57.3766 36.408 55.3139 36.408ZM66.9581 36L72.1601 8.46H79.0961L84.2301 36H78.6201L77.7021 30.186H73.6561L72.7041 36H66.9581ZM74.2001 26.548H77.1241L75.6621 15.804L74.2001 26.548ZM88.6087 36L89.0847 8.46H95.6127L98.6387 24.474L101.903 8.46H108.193L108.669 36H104.351L103.841 17.674L100.645 36H96.8027L93.4027 17.538L92.9947 36H88.6087ZM114.35 36V8.46H126.726V12.608H120.436V19.442H125.23V23.658H120.436V31.886H126.794V36H114.35ZM144.138 36V12.982H139.99V8.46H154.372V12.982H150.258V36H144.138ZM158.497 36V8.46H170.873V12.608H164.583V19.442H169.377V23.658H164.583V31.886H170.941V36H158.497ZM184.477 36L189.679 8.46H196.615L201.749 36H196.139L195.221 30.186H191.175L190.223 36H184.477ZM191.719 26.548H194.643L193.181 15.804L191.719 26.548ZM206.332 36V8.46H211.126V24.236L218.164 8.46H222.108V36H217.212V19.952L210.038 36H206.332ZM214.662 6.25C213.053 6.25 211.761 5.79667 210.786 4.89C209.811 3.98333 209.324 2.66867 209.324 0.945999H212.452C212.452 1.78467 212.611 2.408 212.928 2.816C213.268 3.224 213.846 3.428 214.662 3.428C215.455 3.428 216.022 3.224 216.362 2.816C216.702 2.38533 216.872 1.762 216.872 0.945999H220C220 2.66867 219.513 3.98333 218.538 4.89C217.563 5.79667 216.271 6.25 214.662 6.25ZM230.467 36V12.982H226.319V8.46H240.701V12.982H236.587V36H230.467ZM244.621 36V8.46H250.673V36H244.621ZM0.739017 86L5.97502 73.76C4.93235 73.1253 4.07102 72.196 3.39102 70.972C2.73368 69.748 2.40502 68.32 2.40502 66.688C2.40502 64.5573 2.77902 62.9027 3.52702 61.724C4.27502 60.5227 5.34035 59.684 6.72302 59.208C8.12835 58.7093 9.80568 58.46 11.755 58.46H18.827V86H12.775V75.12H11.687C11.6644 75.12 11.6077 75.12 11.517 75.12C11.4264 75.12 11.3584 75.12 11.313 75.12L7.30102 86H0.739017ZM11.891 70.836H12.775V62.642H11.823C10.5764 62.642 9.63568 62.9933 9.00102 63.696C8.38902 64.376 8.08302 65.3847 8.08302 66.722C8.08302 67.9007 8.35502 68.8867 8.89902 69.68C9.44302 70.4507 10.4404 70.836 11.891 70.836ZM24.8602 86V58.46H30.9462V69.374H31.5582L35.6042 58.46H41.6562L36.6242 71.38L41.8262 86H35.5702L31.5582 73.998H30.9462V86H24.8602ZM45.9152 86V58.46H58.2912V62.608H52.0012V69.442H56.7952V73.658H52.0012V81.886H58.3592V86H45.9152ZM75.7034 86V62.982H71.5554V58.46H85.9374V62.982H81.8234V86H75.7034ZM97.9501 86.408C95.8874 86.408 94.2554 86.0453 93.0541 85.32C91.8527 84.5947 90.9914 83.552 90.4701 82.192C89.9487 80.832 89.6881 79.2113 89.6881 77.33V67.096C89.6881 65.192 89.9487 63.5713 90.4701 62.234C90.9914 60.8967 91.8527 59.8767 93.0541 59.174C94.2554 58.4487 95.8874 58.086 97.9501 58.086C100.035 58.086 101.679 58.4487 102.88 59.174C104.104 59.8767 104.977 60.8967 105.498 62.234C106.019 63.5713 106.28 65.192 106.28 67.096V77.33C106.28 79.2113 106.019 80.832 105.498 82.192C104.977 83.552 104.104 84.5947 102.88 85.32C101.679 86.0453 100.035 86.408 97.9501 86.408ZM97.9501 82.09C98.5847 82.09 99.0494 81.9313 99.3441 81.614C99.6387 81.2967 99.8314 80.8887 99.9221 80.39C100.013 79.8913 100.058 79.3813 100.058 78.86V65.6C100.058 65.056 100.013 64.546 99.9221 64.07C99.8314 63.5713 99.6387 63.1633 99.3441 62.846C99.0494 62.5287 98.5847 62.37 97.9501 62.37C97.3607 62.37 96.9187 62.5287 96.6241 62.846C96.3294 63.1633 96.1367 63.5713 96.0461 64.07C95.9554 64.546 95.9101 65.056 95.9101 65.6V78.86C95.9101 79.3813 95.9441 79.8913 96.0121 80.39C96.1027 80.8887 96.2841 81.2967 96.5561 81.614C96.8507 81.9313 97.3154 82.09 97.9501 82.09ZM111.786 86V58.46H125.454V63.084H117.872V70.088H119.164C120.909 70.088 122.383 70.3713 123.584 70.938C124.808 71.5047 125.737 72.3773 126.372 73.556C127.007 74.712 127.324 76.208 127.324 78.044C127.324 79.7213 127.097 81.0813 126.644 82.124C126.213 83.1667 125.601 83.9713 124.808 84.538C124.015 85.1047 123.085 85.49 122.02 85.694C120.977 85.898 119.844 86 118.62 86H111.786ZM117.872 82.022H118.654C119.425 82.022 120.037 81.8747 120.49 81.58C120.943 81.2853 121.261 80.832 121.442 80.22C121.623 79.608 121.703 78.8373 121.68 77.908C121.657 76.888 121.442 76.038 121.034 75.358C120.626 74.6553 119.81 74.304 118.586 74.304H117.872V82.022ZM132.006 86V58.46H138.058V86H132.006ZM153.739 86V58.46H170.229V86H164.245V62.812H159.723V86H153.739ZM183.913 86.408C181.85 86.408 180.218 86.0453 179.017 85.32C177.816 84.5947 176.954 83.552 176.433 82.192C175.912 80.832 175.651 79.2113 175.651 77.33V67.096C175.651 65.192 175.912 63.5713 176.433 62.234C176.954 60.8967 177.816 59.8767 179.017 59.174C180.218 58.4487 181.85 58.086 183.913 58.086C185.998 58.086 187.642 58.4487 188.843 59.174C190.067 59.8767 190.94 60.8967 191.461 62.234C191.982 63.5713 192.243 65.192 192.243 67.096V77.33C192.243 79.2113 191.982 80.832 191.461 82.192C190.94 83.552 190.067 84.5947 188.843 85.32C187.642 86.0453 185.998 86.408 183.913 86.408ZM183.913 82.09C184.548 82.09 185.012 81.9313 185.307 81.614C185.602 81.2967 185.794 80.8887 185.885 80.39C185.976 79.8913 186.021 79.3813 186.021 78.86V65.6C186.021 65.056 185.976 64.546 185.885 64.07C185.794 63.5713 185.602 63.1633 185.307 62.846C185.012 62.5287 184.548 62.37 183.913 62.37C183.324 62.37 182.882 62.5287 182.587 62.846C182.292 63.1633 182.1 63.5713 182.009 64.07C181.918 64.546 181.873 65.056 181.873 65.6V78.86C181.873 79.3813 181.907 79.8913 181.975 80.39C182.066 80.8887 182.247 81.2967 182.519 81.614C182.814 81.9313 183.278 82.09 183.913 82.09ZM200.129 86V62.982H195.981V58.46H210.363V62.982H206.249V86H200.129ZM214.487 86V58.46H223.735C225.39 58.46 226.75 58.7773 227.815 59.412C228.881 60.024 229.674 60.9307 230.195 62.132C230.717 63.3107 230.977 64.75 230.977 66.45C230.977 68.5807 230.626 70.2127 229.923 71.346C229.221 72.4567 228.269 73.2273 227.067 73.658C225.866 74.0887 224.517 74.304 223.021 74.304H220.573V86H214.487ZM220.573 70.054H222.613C223.361 70.054 223.928 69.918 224.313 69.646C224.699 69.374 224.948 68.966 225.061 68.422C225.197 67.878 225.265 67.1867 225.265 66.348C225.265 65.6453 225.209 65.0333 225.095 64.512C225.005 63.968 224.767 63.5373 224.381 63.22C223.996 62.9027 223.395 62.744 222.579 62.744H220.573V70.054ZM235.407 86V58.46H241.459V86H235.407ZM246.843 86V58.46H260.511V63.084H252.929V70.088H254.221C255.966 70.088 257.44 70.3713 258.641 70.938C259.865 71.5047 260.794 72.3773 261.429 73.556C262.064 74.712 262.381 76.208 262.381 78.044C262.381 79.7213 262.154 81.0813 261.701 82.124C261.27 83.1667 260.658 83.9713 259.865 84.538C259.072 85.1047 258.142 85.49 257.077 85.694C256.034 85.898 254.901 86 253.677 86H246.843ZM252.929 82.022H253.711C254.482 82.022 255.094 81.8747 255.547 81.58C256 81.2853 256.318 80.832 256.499 80.22C256.68 79.608 256.76 78.8373 256.737 77.908C256.714 76.888 256.499 76.038 256.091 75.358C255.683 74.6553 254.867 74.304 253.643 74.304H252.929V82.022ZM267.369 86V58.46H273.455V69.612H277.705V58.46H283.825V86H277.705V73.964H273.455V86H267.369ZM297.607 86.408C295.544 86.408 293.912 86.0453 292.711 85.32C291.51 84.5947 290.648 83.552 290.127 82.192C289.606 80.832 289.345 79.2113 289.345 77.33V67.096C289.345 65.192 289.606 63.5713 290.127 62.234C290.648 60.8967 291.51 59.8767 292.711 59.174C293.912 58.4487 295.544 58.086 297.607 58.086C299.692 58.086 301.336 58.4487 302.537 59.174C303.761 59.8767 304.634 60.8967 305.155 62.234C305.676 63.5713 305.937 65.192 305.937 67.096V77.33C305.937 79.2113 305.676 80.832 305.155 82.192C304.634 83.552 303.761 84.5947 302.537 85.32C301.336 86.0453 299.692 86.408 297.607 86.408ZM297.607 82.09C298.242 82.09 298.706 81.9313 299.001 81.614C299.296 81.2967 299.488 80.8887 299.579 80.39C299.67 79.8913 299.715 79.3813 299.715 78.86V65.6C299.715 65.056 299.67 64.546 299.579 64.07C299.488 63.5713 299.296 63.1633 299.001 62.846C298.706 62.5287 298.242 62.37 297.607 62.37C297.018 62.37 296.576 62.5287 296.281 62.846C295.986 63.1633 295.794 63.5713 295.703 64.07C295.612 64.546 295.567 65.056 295.567 65.6V78.86C295.567 79.3813 295.601 79.8913 295.669 80.39C295.76 80.8887 295.941 81.2967 296.213 81.614C296.508 81.9313 296.972 82.09 297.607 82.09Z" fill="white" fill-opacity="0.7"/>
</svg>
