<svg width="48" height="48" viewBox="0 0 48 48" fill="none" xmlns="http://www.w3.org/2000/svg">
<g clip-path="url(#clip0_2762_11303)">
<path d="M23.9958 4L24.2318 4.014L24.3498 4.03L24.4718 4.056L24.6938 4.124C24.8471 4.18053 24.9929 4.25576 25.1278 4.348L25.3358 4.512L25.8458 4.948C29.8804 8.29913 34.9795 10.0986 40.2238 10.022L40.9078 10.002C41.355 9.9816 41.7961 10.1118 42.1605 10.3718C42.5249 10.6318 42.7916 11.0065 42.9178 11.436C43.9006 14.7792 44.2013 18.2858 43.8021 21.7474C43.403 25.2091 42.312 28.5552 40.5941 31.587C38.8762 34.6187 36.5664 37.2741 33.8019 39.3955C31.0374 41.517 27.8748 43.061 24.5018 43.936C24.1726 44.0214 23.827 44.0214 23.4978 43.936C20.1246 43.0612 16.9617 41.5173 14.1971 39.396C11.4324 37.2747 9.12235 34.6193 7.40424 31.5875C5.68612 28.5558 4.59499 25.2096 4.19568 21.7478C3.79637 18.286 4.09702 14.7793 5.07979 11.436C5.20601 11.0065 5.47267 10.6318 5.83708 10.3718C6.2015 10.1118 6.6426 9.9816 7.08979 10.002C12.5647 10.2523 17.9359 8.44998 22.1518 4.948L22.6778 4.498L22.8698 4.348C23.0047 4.25576 23.1505 4.18053 23.3038 4.124L23.5278 4.056C23.6062 4.03707 23.6857 4.02304 23.7658 4.014L23.9958 4ZM31.4158 18.586C31.23 18.4 31.0095 18.2525 30.7667 18.1519C30.5239 18.0512 30.2636 17.9994 30.0008 17.9994C29.738 17.9994 29.4777 18.0512 29.2349 18.1519C28.9921 18.2525 28.7715 18.4 28.5858 18.586L21.9998 25.17L19.4138 22.586L19.2258 22.42C18.8238 22.1092 18.3186 21.963 17.8127 22.0112C17.3069 22.0594 16.8384 22.2983 16.5023 22.6794C16.1662 23.0606 15.9878 23.5553 16.0033 24.0632C16.0188 24.5711 16.2271 25.0541 16.5858 25.414L20.5858 29.414L20.7738 29.58C21.1586 29.8785 21.6391 30.0263 22.1252 29.9958C22.6112 29.9652 23.0694 29.7584 23.4138 29.414L31.4138 21.414L31.5798 21.226C31.8783 20.8412 32.0261 20.3607 31.9956 19.8746C31.965 19.3886 31.7581 18.9304 31.4138 18.586H31.4158Z" fill="#FFD028"/>
</g>
<defs>
<clipPath id="clip0_2762_11303">
<rect width="48" height="48" fill="white"/>
</clipPath>
</defs>
</svg>
