<svg width="120" height="26" viewBox="0 0 120 26" fill="none" xmlns="http://www.w3.org/2000/svg">
<g clip-path="url(#clip0_2278_5906)">
<path fill-rule="evenodd" clip-rule="evenodd" d="M31.572 0.49962C33.429 0.49962 35.072 0.91262 36.44 1.69962C37.828 2.52762 38.884 3.68862 39.626 5.16462C40.369 6.66062 40.741 8.43262 40.741 10.4606C40.741 12.6456 40.311 14.5546 39.431 16.1106C38.571 17.6846 37.32 18.8266 35.697 19.5546C36.537 19.8306 37.222 20.4606 37.789 21.3846L38.766 22.8616C38.962 23.1966 39.079 23.5116 39.079 23.8466C39.079 24.2596 38.923 24.6136 38.59 24.8696C38.2986 25.1041 37.9438 25.2462 37.5711 25.2778C37.1983 25.3093 36.8247 25.2288 36.498 25.0466C36.2072 24.8756 35.9598 24.6399 35.775 24.3576L34.172 21.6806C33.918 21.2476 33.586 20.9326 33.175 20.7356C32.765 20.5386 32.237 20.4206 31.572 20.4206C29.676 20.4206 28.053 20.0076 26.665 19.2206C25.277 18.3936 24.222 17.2316 23.479 15.7556C22.736 14.2396 22.364 12.4686 22.364 10.4606C22.364 8.43262 22.755 6.68062 23.479 5.16462C24.1824 3.7253 25.2894 2.52172 26.665 1.70062C28.053 0.87362 29.675 0.49962 31.572 0.49962ZM78.392 0.51962C78.862 0.51962 79.233 0.71662 79.565 1.12962L85.176 8.13762L90.767 1.12962C91.1 0.73562 91.51 0.53962 91.98 0.53962C92.39 0.53962 92.762 0.69662 93.094 1.03062C93.426 1.36562 93.582 1.72062 93.582 2.19262C93.582 2.54662 93.446 2.92062 93.172 3.25562L86.936 10.9126V18.5706C86.936 19.1406 86.779 19.5746 86.447 19.9086C86.114 20.2436 85.704 20.3816 85.197 20.3816C84.668 20.3816 84.218 20.2236 83.887 19.9086C83.553 19.5946 83.397 19.1606 83.397 18.5706V10.9126L77.2 3.23562C76.926 2.90162 76.79 2.54662 76.79 2.17262C76.7886 1.95615 76.8311 1.74165 76.915 1.54209C76.9989 1.34253 77.1224 1.16206 77.278 1.01162C77.611 0.67662 78.001 0.51962 78.392 0.51962ZM57.846 2.25162C56.693 1.18862 55.09 0.67662 53.018 0.67662H46.273C45.745 0.67662 45.335 0.83462 45.022 1.10962C44.709 1.40562 44.552 1.81862 44.552 2.34962V18.5116C44.552 19.0626 44.709 19.4956 45.042 19.8306C45.335 20.1646 45.784 20.3226 46.312 20.3426C46.86 20.3426 47.29 20.1846 47.622 19.8496C47.954 19.5346 48.111 19.1016 48.111 18.5306V12.5866H53.018C55.09 12.5866 56.693 12.0746 57.846 11.0116C59 9.96862 59.586 8.49162 59.586 6.62162C59.586 4.75162 59 3.27562 57.846 2.25162ZM16.95 0.51962C17.478 0.51962 17.947 0.67662 18.26 1.01162C18.592 1.34562 18.749 1.75962 18.749 2.29162V18.5116C18.749 19.0426 18.592 19.4956 18.26 19.8306C17.928 20.1646 17.498 20.3226 16.95 20.3226C16.442 20.3226 16.012 20.1646 15.68 19.8306C15.347 19.4956 15.19 19.0626 15.19 18.5106V2.29162C15.19 1.76062 15.347 1.34662 15.68 1.01162C16.012 0.67762 16.422 0.52062 16.95 0.52062V0.51962ZM69.792 0.77562C69.4622 0.594736 69.0922 0.499817 68.716 0.49962C68.3391 0.490503 67.967 0.586039 67.641 0.77562C67.3005 0.966005 67.0324 1.26336 66.878 1.62162L59.293 18.0196C59.1945 18.25 59.1412 18.4971 59.136 18.7476C59.136 19.1806 59.293 19.5546 59.645 19.8306C59.977 20.1056 60.388 20.2636 60.798 20.2636C61.111 20.2636 61.385 20.1846 61.638 20.0276C61.893 19.8696 62.088 19.6336 62.245 19.2986L63.907 15.5986H73.525L75.186 19.2986C75.323 19.6136 75.538 19.8696 75.792 20.0276C76.047 20.1846 76.34 20.2636 76.614 20.2636C77.064 20.2636 77.454 20.1056 77.786 19.8306C78.119 19.5156 78.295 19.1606 78.295 18.7476C78.295 18.4916 78.236 18.2756 78.158 18.0196L70.553 1.62162C70.3923 1.26782 70.1272 0.972334 69.792 0.77562ZM1.75902 0.53862C2.28702 0.53862 2.75602 0.69662 3.06902 1.03062C3.40202 1.36562 3.55802 1.77962 3.55802 2.31062V17.2516H11.241C12.336 17.2516 12.903 17.7436 12.903 18.7086C12.903 19.6726 12.336 20.1646 11.241 20.1646H1.66002C1.13302 20.1646 0.722023 20.0076 0.430023 19.7126C0.155023 19.4366 -0.000976562 19.0226 -0.000976562 18.5116V2.30962C2.34375e-05 1.77962 0.156023 1.36562 0.489023 1.03062C0.820023 0.69662 1.23202 0.53862 1.75902 0.53862ZM27.349 5.12562C28.346 3.90562 29.734 3.29562 31.533 3.29562C33.331 3.29562 34.7 3.88562 35.697 5.12562C36.694 6.36562 37.202 8.09762 37.202 10.4206C37.202 12.7046 36.694 14.4756 35.697 15.7166C34.7 16.9566 33.312 17.5666 31.533 17.5666C29.754 17.5666 28.346 16.9566 27.349 15.7166C26.352 14.4766 25.844 12.7436 25.844 10.4206C25.844 8.09762 26.352 6.36562 27.349 5.12562ZM68.716 4.65362L65.099 12.8416H72.352L68.716 4.65362ZM48.11 3.45262H52.567C54.991 3.45262 56.223 4.53462 56.223 6.66062C56.223 8.78662 54.991 9.87062 52.567 9.87062L48.11 9.85062V3.45162V3.45262Z" fill="#A4A4A4"/>
<path fill-rule="evenodd" clip-rule="evenodd" d="M100.62 19.7171L100.347 19.4811C99.6817 18.9101 99.5637 17.8671 100.171 17.1971L107.287 9.00806C107.854 8.33906 108.89 8.22106 109.555 8.83106L109.828 9.06706C110.493 9.63806 110.61 10.6821 110.004 11.3511L102.888 19.5401C102.321 20.2101 101.324 20.2881 100.62 19.7171Z" fill="url(#paint0_linear_2278_5906)"/>
<path opacity="0.4" fill-rule="evenodd" clip-rule="evenodd" d="M106.329 10.4265L106.192 10.2695L105.098 11.5295L105.214 11.6665C107.091 13.5565 106.29 15.4665 105.859 16.1355L106.016 15.9585C106.27 15.6625 106.661 15.2105 107.072 14.7185C107.501 13.9695 108.108 12.1985 106.329 10.4265Z" fill="url(#paint1_linear_2278_5906)"/>
<path opacity="0.4" fill-rule="evenodd" clip-rule="evenodd" d="M108.675 12.8856L108.968 12.5516C108.988 12.5116 109.027 12.4726 109.046 12.4336C108.733 12.7876 108.401 13.1616 108.088 13.5356C108.323 13.2796 108.519 13.0626 108.675 12.8856Z" fill="url(#paint2_radial_2278_5906)"/>
<path fill-rule="evenodd" clip-rule="evenodd" d="M110.043 9.2643L102.927 1.0743C102.36 0.405297 101.324 0.287297 100.66 0.898297L100.386 1.1343C99.7214 1.7043 99.6044 2.7483 100.21 3.4173L106.212 10.2673L106.349 10.4253C108.127 12.2163 107.522 13.9883 107.072 14.7363C107.423 14.3233 107.775 13.9093 108.108 13.5363C108.42 13.1613 108.753 12.7873 109.066 12.4333C109.379 12.0793 109.671 11.7443 109.867 11.5283C110.552 10.8583 110.649 9.9333 110.043 9.2643Z" fill="url(#paint3_linear_2278_5906)"/>
<path fill-rule="evenodd" clip-rule="evenodd" d="M109.652 19.7171L109.379 19.4811C108.714 18.9101 108.597 17.8671 109.202 17.1971L116.319 9.00806C116.885 8.33906 117.921 8.22106 118.586 8.83106L118.86 9.06706C119.525 9.63806 119.642 10.6821 119.036 11.3511L111.92 19.5401C111.353 20.2101 110.356 20.2881 109.652 19.7171Z" fill="url(#paint4_linear_2278_5906)"/>
<path opacity="0.4" fill-rule="evenodd" clip-rule="evenodd" d="M115.438 10.3445L115.302 10.1865L114.207 11.4465L114.324 11.5845C116.201 13.4745 115.4 15.3845 114.969 16.0535L115.126 15.8755C115.38 15.5805 115.771 15.1275 116.182 14.6355C116.611 13.8875 117.218 12.1155 115.438 10.3445Z" fill="url(#paint5_linear_2278_5906)"/>
<path opacity="0.4" fill-rule="evenodd" clip-rule="evenodd" d="M117.687 12.8856L117.98 12.5516C117.999 12.5116 118.039 12.4726 118.058 12.4336C117.746 12.7876 117.413 13.1616 117.101 13.5356C117.335 13.2796 117.55 13.0626 117.687 12.8856Z" fill="url(#paint6_radial_2278_5906)"/>
<path fill-rule="evenodd" clip-rule="evenodd" d="M119.055 9.2643L111.939 1.0743C111.372 0.405297 110.337 0.287297 109.671 0.898297L109.398 1.1343C108.733 1.7043 108.616 2.7483 109.222 3.4173L115.224 10.2673L115.36 10.4253C117.139 12.2163 116.533 13.9883 116.084 14.7363C116.436 14.3233 116.788 13.9093 117.12 13.5363C117.433 13.1613 117.765 12.7873 118.078 12.4333C118.39 12.0793 118.684 11.7443 118.88 11.5283C119.563 10.8583 119.662 9.9333 119.055 9.2643Z" fill="url(#paint7_linear_2278_5906)"/>
</g>
<defs>
<linearGradient id="paint0_linear_2278_5906" x1="102.843" y1="22.2731" x2="112.744" y2="17.5051" gradientUnits="userSpaceOnUse">
<stop stop-color="#1FADC3"/>
<stop offset="0.707" stop-color="#36B98F"/>
</linearGradient>
<linearGradient id="paint1_linear_2278_5906" x1="106.311" y1="14.5295" x2="108.157" y2="14.2625" gradientUnits="userSpaceOnUse">
<stop stop-color="#123F06" stop-opacity="0.01"/>
<stop offset="1" stop-color="#123F06"/>
</linearGradient>
<radialGradient id="paint2_radial_2278_5906" cx="0" cy="0" r="1" gradientUnits="userSpaceOnUse" gradientTransform="translate(104.754 13.9096) scale(4.7665 5.48525)">
<stop offset="0.418" stop-color="#123F06" stop-opacity="0.01"/>
<stop offset="1" stop-color="#123F06"/>
</radialGradient>
<linearGradient id="paint3_linear_2278_5906" x1="96.0894" y1="11.3513" x2="108.083" y2="15.4673" gradientUnits="userSpaceOnUse">
<stop stop-color="#9FDB57"/>
<stop offset="1" stop-color="#71CA5E"/>
</linearGradient>
<linearGradient id="paint4_linear_2278_5906" x1="111.866" y1="22.2781" x2="121.767" y2="17.5101" gradientUnits="userSpaceOnUse">
<stop stop-color="#1FADC3"/>
<stop offset="0.707" stop-color="#36B98F"/>
</linearGradient>
<linearGradient id="paint5_linear_2278_5906" x1="115.421" y1="14.4475" x2="117.267" y2="14.1805" gradientUnits="userSpaceOnUse">
<stop stop-color="#123F06" stop-opacity="0.01"/>
<stop offset="1" stop-color="#123F06"/>
</linearGradient>
<radialGradient id="paint6_radial_2278_5906" cx="0" cy="0" r="1" gradientUnits="userSpaceOnUse" gradientTransform="translate(113.774 13.9096) scale(4.7665 5.48525)">
<stop offset="0.418" stop-color="#123F06" stop-opacity="0.01"/>
<stop offset="1" stop-color="#123F06"/>
</radialGradient>
<linearGradient id="paint7_linear_2278_5906" x1="105.107" y1="11.3553" x2="117.101" y2="15.4713" gradientUnits="userSpaceOnUse">
<stop stop-color="#9FDB57"/>
<stop offset="1" stop-color="#71CA5E"/>
</linearGradient>
<clipPath id="clip0_2278_5906">
<rect width="120" height="25" fill="white" transform="translate(0 0.5)"/>
</clipPath>
</defs>
</svg>
