<svg width="93" height="26" viewBox="0 0 93 26" fill="none" xmlns="http://www.w3.org/2000/svg">
<g clip-path="url(#clip0_2762_11278)">
<mask id="mask0_2762_11278" style="mask-type:luminance" maskUnits="userSpaceOnUse" x="0" y="0" width="93" height="26">
<path d="M93 0.5H0V25.5H93V0.5Z" fill="white"/>
</mask>
<g mask="url(#mask0_2762_11278)">
<path d="M67.8892 18.7688H65.8682V7.22461H70.9292C72.0927 7.22461 73.0078 7.57074 73.6759 8.26308C74.3552 8.95538 74.6953 9.81497 74.6953 10.8419C74.6953 11.8573 74.3552 12.7169 73.6759 13.4207C73.0078 14.1131 72.0927 14.4592 70.9292 14.4592H67.8892V18.7688ZM70.6532 12.6765C71.2287 12.6765 71.7011 12.5092 72.0694 12.1746C72.438 11.84 72.6223 11.3957 72.6223 10.8419C72.6223 10.2881 72.438 9.84384 72.0694 9.50921C71.7011 9.17461 71.2287 9.00727 70.6532 9.00727H67.8892V12.6765H70.6532Z" fill="white"/>
<path d="M82.8968 18.7685H81.083V17.8685C80.4383 18.6069 79.5401 18.9762 78.3883 18.9762C77.6285 18.9762 76.9548 18.7339 76.3673 18.2493C75.7801 17.7531 75.4863 17.0723 75.4863 16.2069C75.4863 15.3185 75.7745 14.6435 76.3499 14.1819C76.9375 13.7204 77.6168 13.4896 78.3883 13.4896C79.5747 13.4896 80.4729 13.8473 81.083 14.5627V13.3166C81.083 12.8319 80.9048 12.4512 80.5478 12.1743C80.1908 11.8973 79.7184 11.7589 79.1312 11.7589C78.1984 11.7589 77.375 12.1108 76.661 12.8146L75.9181 11.5512C76.8627 10.6512 78.0313 10.2012 79.425 10.2012C80.45 10.2012 81.2847 10.4435 81.9298 10.9281C82.5745 11.4127 82.8968 12.18 82.8968 13.23V18.7685ZM79.0966 17.73C80.0065 17.73 80.6685 17.4416 81.083 16.8646V15.6012C80.6685 15.0243 80.0065 14.7358 79.0966 14.7358C78.5787 14.7358 78.1525 14.8743 77.8184 15.1512C77.4844 15.4281 77.3174 15.7916 77.3174 16.2416C77.3174 16.6916 77.4844 17.055 77.8184 17.3319C78.1525 17.5973 78.5787 17.73 79.0966 17.73Z" fill="white"/>
<path d="M84.8863 22.0409L85.1628 20.414C85.37 20.5063 85.6002 20.5525 85.8537 20.5525C86.4409 20.5525 86.8385 20.3102 87.0458 19.8256L87.4603 18.8736L84.04 10.4102H85.9745L88.4104 16.6756L90.846 10.4102H92.7978L88.773 20.2756C88.2776 21.5102 87.3218 22.139 85.9057 22.1621C85.5254 22.1621 85.1857 22.1217 84.8863 22.0409Z" fill="white"/>
<path d="M27.0717 15.662C26.3526 15.662 25.7848 15.4091 25.3685 14.9035C24.9522 14.3853 24.7441 13.7469 24.7441 12.9885C24.7441 12.2427 24.9522 11.617 25.3685 11.1114C25.7848 10.5931 26.3526 10.334 27.0717 10.334C27.7908 10.334 28.3585 10.5931 28.7748 11.1114C29.2038 11.617 29.4182 12.2427 29.4182 12.9885C29.4182 13.7469 29.2038 14.3853 28.7748 14.9035C28.3585 15.4091 27.7908 15.662 27.0717 15.662Z" fill="white"/>
<path d="M48.8962 15.662C48.177 15.662 47.6092 15.4091 47.193 14.9035C46.7765 14.3853 46.5684 13.7469 46.5684 12.9885C46.5684 12.2427 46.7765 11.617 47.193 11.1114C47.6092 10.5931 48.177 10.334 48.8962 10.334C49.6153 10.334 50.1828 10.5931 50.5993 11.1114C51.0283 11.617 51.2428 12.2427 51.2428 12.9885C51.2428 13.7469 51.0283 14.3853 50.5993 14.9035C50.1828 15.4091 49.6153 15.662 48.8962 15.662Z" fill="white"/>
<path fill-rule="evenodd" clip-rule="evenodd" d="M5.75798 0.5C2.57793 0.5 0 3.08297 0 6.26923V19.7308C0 22.917 2.57794 25.5 5.75798 25.5H54.7007C57.8808 25.5 60.4588 22.917 60.4588 19.7308V6.26923C60.4588 3.08297 57.8808 0.5 54.7007 0.5H5.75798ZM18.0531 17.5779H20.4753V10.9606C20.4753 10.0378 20.2419 9.34891 19.7751 8.89383C19.3083 8.42613 18.646 8.1923 17.7881 8.1923C17.1321 8.1923 16.5139 8.35661 15.9336 8.68528C15.3659 9.01391 14.937 9.40577 14.6468 9.86085C14.2809 8.74847 13.4357 8.1923 12.111 8.1923C11.4802 8.1923 10.8809 8.35028 10.3132 8.66629C9.7455 8.96968 9.34814 9.28569 9.12104 9.61435V8.41984H6.71771V17.5779H9.12104V11.4156C9.3229 11.1249 9.59415 10.8721 9.93477 10.6572C10.2754 10.4423 10.6349 10.3349 11.0134 10.3349C11.9218 10.3349 12.3759 10.8215 12.3759 11.7948V17.5779H14.7982V11.3967C15 11.1186 15.265 10.8721 15.593 10.6572C15.9336 10.4423 16.2995 10.3349 16.6906 10.3349C17.5989 10.3349 18.0531 10.8215 18.0531 11.7948V17.5779ZM27.0715 17.8054C28.5349 17.8054 29.7082 17.344 30.5913 16.4213C31.4744 15.4859 31.9159 14.3419 31.9159 12.9894C31.9159 11.6369 31.4744 10.4992 30.5913 9.57641C29.7082 8.65367 28.5349 8.1923 27.0715 8.1923C25.608 8.1923 24.4347 8.65367 23.5516 9.57641C22.6811 10.4992 22.2459 11.6369 22.2459 12.9894C22.2459 14.3419 22.6811 15.4859 23.5516 16.4213C24.4347 17.344 25.608 17.8054 27.0715 17.8054ZM42.2714 17.5779H39.8681V12.0413C39.8681 10.9037 39.3067 10.3349 38.1839 10.3349C37.3134 10.3349 36.6195 10.6951 36.1022 11.4156V17.5779H33.6989V8.41984H36.1022V9.61435C36.8971 8.66629 37.9631 8.1923 39.3004 8.1923C40.2846 8.1923 41.0226 8.45141 41.5144 8.96968C42.0191 9.48794 42.2714 10.2021 42.2714 11.1123V17.5779ZM48.8967 17.8054C50.36 17.8054 51.5335 17.344 52.4165 16.4213C53.2994 15.4859 53.7413 14.3419 53.7413 12.9894C53.7413 11.6369 53.2994 10.4992 52.4165 9.57641C51.5335 8.65367 50.36 8.1923 48.8967 8.1923C47.4331 8.1923 46.26 8.65367 45.377 9.57641C44.5065 10.4992 44.0711 11.6369 44.0711 12.9894C44.0711 14.3419 44.5065 15.4859 45.377 16.4213C46.26 17.344 47.4331 17.8054 48.8967 17.8054Z" fill="white"/>
</g>
</g>
<defs>
<clipPath id="clip0_2762_11278">
<rect width="93" height="25" fill="white" transform="translate(0 0.5)"/>
</clipPath>
</defs>
</svg>
