<svg width="48" height="48" viewBox="0 0 48 48" fill="none" xmlns="http://www.w3.org/2000/svg">
<g clip-path="url(#clip0_2762_11294)">
<path d="M19.766 4.41382C20.7173 4.30171 21.6759 4.55301 22.4498 5.11744C23.2238 5.68186 23.756 6.51776 23.94 7.45782L23.99 7.79182L24 7.99982V21.9998C24 22.4897 24.1799 22.9625 24.5054 23.3286C24.8309 23.6946 25.2795 23.9285 25.766 23.9858L26 23.9998H39.6C40.6609 23.9998 41.6783 24.4212 42.4284 25.1714C43.1786 25.9215 43.6 26.939 43.6 27.9998C43.5999 28.152 43.5825 28.3036 43.548 28.4518C42.7476 31.9051 41.0438 35.0837 38.6109 37.6619C36.1781 40.2402 33.1038 42.1255 29.7027 43.1249C26.3016 44.1242 22.696 44.2016 19.2551 43.3492C15.8143 42.4968 12.6618 40.7452 10.1206 38.2737C7.57933 35.8023 5.74061 32.6998 4.79273 29.284C3.84484 25.8682 3.82184 22.2619 4.7261 18.8343C5.63035 15.4067 7.42936 12.281 9.93888 9.77739C12.4484 7.27373 15.5783 5.48205 19.008 4.58582L19.548 4.45182L19.768 4.41182L19.766 4.41382Z" fill="#FFD028"/>
<path d="M28 7.00015V18.0001C28 18.5306 28.2107 19.0393 28.5858 19.4144C28.9609 19.7894 29.4696 20.0001 30 20.0001H41C41.3197 20.0001 41.6347 19.9233 41.9186 19.7764C42.2025 19.6295 42.4471 19.4167 42.6318 19.1558C42.8165 18.8949 42.936 18.5935 42.9802 18.2769C43.0244 17.9603 42.9921 17.6377 42.886 17.3361C41.8927 14.5148 40.2792 11.9522 38.1644 9.83702C36.0495 7.72183 33.4872 6.10793 30.666 5.11415C30.3643 5.00762 30.0415 4.975 29.7247 5.01904C29.4078 5.06308 29.1061 5.1825 28.845 5.36725C28.5838 5.55201 28.3707 5.79673 28.2237 6.08085C28.0767 6.36498 28 6.68023 28 7.00015Z" fill="white"/>
</g>
<defs>
<clipPath id="clip0_2762_11294">
<rect width="48" height="48" fill="white"/>
</clipPath>
</defs>
</svg>
