<svg width="676" height="56" viewBox="0 0 676 56" fill="none" xmlns="http://www.w3.org/2000/svg">
<path d="M4.7596 32.2329C4.692 31.6929 4.20566 31.3076 3.66715 31.3621C3.28831 26.3933 4.74967 21.6939 7.47617 17.9393C7.906 18.268 8.522 18.1952 8.86285 17.7711C9.09335 17.4843 9.33196 17.204 9.57834 16.9307C9.94267 16.5266 9.91625 15.9068 9.52311 15.535C12.7947 12.2444 17.2007 10.052 22.1663 9.6332C22.1985 10.1735 22.6563 10.5922 23.2002 10.5727C23.3842 10.5662 23.5689 10.5622 23.7544 10.5607L24.2595 10.5568C24.8118 10.5526 25.2561 10.1014 25.2518 9.54912L37.3953 9.45527C37.3996 10.0075 37.8508 10.4518 38.403 10.4475L39.4133 10.4397C39.9656 10.4354 40.4098 9.98427 40.4055 9.432L52.5491 9.33815C52.5534 9.89041 53.0045 10.3347 53.5568 10.3304L54.567 10.3226C55.1193 10.3183 55.5635 9.86715 55.5593 9.31488L67.7028 9.22103C67.7071 9.7733 68.1583 10.2175 68.7105 10.2133L69.7208 10.2055C70.2731 10.2012 70.7173 9.75003 70.713 9.19776L82.8566 9.10391C82.8608 9.65618 83.312 10.1004 83.8643 10.0961L84.8745 10.0883C85.4268 10.0841 85.871 9.63291 85.8668 9.08064L98.0103 8.98679C98.0146 9.53905 98.4658 9.9833 99.018 9.97903L100.028 9.97122C100.581 9.96695 101.025 9.51579 101.021 8.96352L113.164 8.86967C113.168 9.42193 113.619 9.86618 114.172 9.86191L115.182 9.8541C115.734 9.84983 116.179 9.39867 116.174 8.8464L128.318 8.75255C128.322 9.30481 128.773 9.74906 129.325 9.74479L130.336 9.73698C130.888 9.73271 131.332 9.28155 131.328 8.72928L143.472 8.63543C143.476 9.18769 143.927 9.63194 144.479 9.62767L145.489 9.61986C146.042 9.61559 146.486 9.16443 146.482 8.61216L158.625 8.51831C158.63 9.07057 159.081 9.51482 159.633 9.51055L160.643 9.50274C161.195 9.49847 161.64 9.04731 161.635 8.49504L173.779 8.40119C173.783 8.95345 174.234 9.3977 174.787 9.39343L175.797 9.38562C176.349 9.38135 176.793 8.93019 176.789 8.37792L188.933 8.28407C188.937 8.83633 189.388 9.28058 189.94 9.27631L190.951 9.2685C191.503 9.26423 191.947 8.81307 191.943 8.2608L204.087 8.16695C204.091 8.71921 204.542 9.16345 205.094 9.15919L206.104 9.15138C206.657 9.14711 207.101 8.69595 207.097 8.14368L219.24 8.04982C219.245 8.60209 219.696 9.04633 220.248 9.04207L221.258 9.03426C221.811 9.02999 222.255 8.57883 222.25 8.02656L234.394 7.9327C234.398 8.48497 234.849 8.92921 235.402 8.92495L236.412 8.91714C236.964 8.91287 237.408 8.46171 237.404 7.90944L249.548 7.81558C249.552 8.36785 250.003 8.81209 250.555 8.80783L251.566 8.80002C252.118 8.79575 252.562 8.34459 252.558 7.79232L264.702 7.69846C264.706 8.25073 265.157 8.69497 265.709 8.69071L266.72 8.6829C267.272 8.67863 267.716 8.22747 267.712 7.6752L279.855 7.58134C279.86 8.13361 280.311 8.57785 280.863 8.57359L281.873 8.56578C282.425 8.56151 282.87 8.11035 282.865 7.55808L295.009 7.46422C295.013 8.01649 295.464 8.46073 296.017 8.45647L297.027 8.44866C297.579 8.44439 298.023 7.99323 298.019 7.44096L310.163 7.3471C310.167 7.89937 310.618 8.34361 311.17 8.33935L312.181 8.33154C312.733 8.32727 313.177 7.87611 313.173 7.32384L325.317 7.22998C325.321 7.78225 325.772 8.22649 326.324 8.22222L327.334 8.21442C327.887 8.21015 328.331 7.75899 328.327 7.20672L340.47 7.11286C340.475 7.66513 340.926 8.10937 341.478 8.1051L342.488 8.0973C343.041 8.09303 343.485 7.64187 343.48 7.0896L355.624 6.99574C355.628 7.54801 356.079 7.99225 356.632 7.98798L357.642 7.98018C358.194 7.97591 358.639 7.52475 358.634 6.97248L370.778 6.87862C370.782 7.43089 371.233 7.87513 371.785 7.87086L372.796 7.86306C373.348 7.85879 373.792 7.40763 373.788 6.85536L385.932 6.7615C385.936 7.31377 386.387 7.75801 386.939 7.75374L387.95 7.74594C388.502 7.74167 388.946 7.29051 388.942 6.73824L401.085 6.64438C401.09 7.19665 401.541 7.64089 402.093 7.63662L403.103 7.62882C403.655 7.62455 404.1 7.17339 404.095 6.62112L416.239 6.52726C416.243 7.07953 416.694 7.52377 417.247 7.5195L418.257 7.5117C418.809 7.50743 419.254 7.05626 419.249 6.504L431.393 6.41014C431.397 6.96241 431.848 7.40665 432.401 7.40238L433.411 7.39458C433.963 7.39031 434.407 6.93914 434.403 6.38688L446.547 6.29302C446.551 6.84529 447.002 7.28953 447.554 7.28526L448.565 7.27745C449.117 7.27319 449.561 6.82202 449.557 6.26976L461.7 6.1759C461.705 6.72817 462.156 7.17241 462.708 7.16814L463.718 7.16033C464.271 7.15607 464.715 6.7049 464.71 6.15264L476.854 6.05878C476.858 6.61105 477.309 7.05529 477.862 7.05102L478.872 7.04321C479.424 7.03895 479.869 6.58778 479.864 6.03552L492.008 5.94166C492.012 6.49393 492.463 6.93817 493.016 6.9339L494.026 6.92609C494.578 6.92183 495.022 6.47066 495.018 5.9184L507.162 5.82454C507.166 6.37681 507.617 6.82105 508.169 6.81678L509.18 6.80897C509.732 6.80471 510.176 6.35354 510.172 5.80128L522.315 5.70742C522.32 6.25969 522.771 6.70393 523.323 6.69966L524.333 6.69185C524.886 6.68759 525.33 6.23642 525.326 5.68415L537.469 5.5903C537.473 6.14257 537.925 6.58681 538.477 6.58254L539.487 6.57473C540.039 6.57047 540.484 6.1193 540.479 5.56703L552.623 5.47318C552.627 6.02545 553.078 6.46969 553.63 6.46542L554.641 6.45761C555.193 6.45335 555.637 6.00218 555.633 5.44991L567.776 5.35606C567.781 5.90833 568.232 6.35257 568.784 6.3483L569.794 6.34049C570.347 6.33622 570.791 5.88506 570.787 5.33279L582.93 5.23894C582.934 5.79121 583.386 6.23545 583.938 6.23118L584.948 6.22337C585.5 6.21911 585.945 5.76794 585.94 5.21567L598.084 5.12182C598.088 5.67409 598.539 6.11833 599.092 6.11406L600.102 6.10625C600.654 6.10199 601.098 5.65082 601.094 5.09855L613.238 5.0047C613.242 5.55697 613.693 6.00121 614.245 5.99694L615.256 5.98913C615.808 5.98487 616.252 5.5337 616.248 4.98143L628.391 4.88758C628.396 5.43985 628.847 5.88409 629.399 5.87982L630.409 5.87201C630.962 5.86774 631.406 5.41658 631.402 4.86431L643.545 4.77046C643.549 5.32273 644.001 5.76697 644.553 5.7627L645.058 5.7588C645.248 5.75733 645.437 5.75806 645.626 5.76097C646.171 5.76937 646.621 5.3391 646.64 4.79611C651.626 5.06907 656.272 6.79902 660.115 9.60128C659.786 10.0337 659.862 10.6518 660.29 10.9904C660.586 11.2247 660.877 11.4658 661.162 11.7136C661.573 12.0718 662.195 12.0332 662.559 11.6303C666.022 14.8914 668.578 19.1391 669.765 23.9886C669.235 24.1072 668.895 24.629 669.004 25.1638C669.041 25.3488 669.077 25.5346 669.11 25.7213C669.138 25.878 669.165 26.0345 669.19 26.1909C669.276 26.7298 669.778 27.0989 670.316 27.0233C670.806 31.0922 670.294 35.0428 668.981 38.6366C668.475 38.4399 667.902 38.6841 667.695 39.1887C667.575 39.4809 667.449 39.7703 667.318 40.0569C667.091 40.5531 667.304 41.1384 667.793 41.3739C666.011 44.8943 663.422 47.963 660.253 50.3132C659.938 49.8704 659.325 49.7592 658.874 50.0666C658.614 50.2442 658.35 50.4169 658.082 50.5845C657.62 50.874 657.476 51.4798 657.755 51.9457C654.434 53.8454 650.626 55.0161 646.533 55.219C646.516 54.6758 646.068 54.2433 645.522 54.2492C645.444 54.2501 645.366 54.2505 645.288 54.2507C645.208 54.2508 645.127 54.2505 645.046 54.2498L644.541 54.2457C643.989 54.2411 643.537 54.6852 643.533 55.2374L631.389 55.1376C631.394 54.5853 630.95 54.1339 630.397 54.1294L629.387 54.1211C628.835 54.1166 628.384 54.5606 628.379 55.1128L616.236 55.013C616.24 54.4607 615.796 54.0094 615.244 54.0048L614.233 53.9965C613.681 53.992 613.23 54.436 613.225 54.9883L601.082 54.8884C601.086 54.3362 600.642 53.8848 600.09 53.8802L599.08 53.8719C598.528 53.8674 598.076 54.3114 598.072 54.8637L585.928 54.7638C585.933 54.2116 585.489 53.7602 584.936 53.7557L583.926 53.7474C583.374 53.7428 582.922 54.1868 582.918 54.7391L570.774 54.6393C570.779 54.087 570.335 53.6356 569.783 53.6311L568.772 53.6228C568.22 53.6182 567.769 54.0623 567.764 54.6145L555.621 54.5147C555.625 53.9624 555.181 53.511 554.629 53.5065L553.619 53.4982C553.067 53.4937 552.615 53.9377 552.611 54.4899L540.467 54.3901C540.472 53.8378 540.028 53.3865 539.475 53.3819L538.465 53.3736C537.913 53.3691 537.461 53.8131 537.457 54.3654L525.313 54.2655C525.318 53.7133 524.874 53.2619 524.322 53.2573L523.311 53.249C522.759 53.2445 522.308 53.6885 522.303 54.2408L510.16 54.1409C510.164 53.5887 509.72 53.1373 509.168 53.1328L508.158 53.1244C507.605 53.1199 507.154 53.5639 507.15 54.1162L495.006 54.0164C495.011 53.4641 494.567 53.0127 494.014 53.0082L493.004 52.9999C492.452 52.9953 492 53.4393 491.996 53.9916L479.852 53.8918C479.857 53.3395 479.413 52.8881 478.861 52.8836L477.85 52.8753C477.298 52.8707 476.847 53.3148 476.842 53.867L464.699 53.7672C464.703 53.2149 464.259 52.7635 463.707 52.759L462.697 52.7507C462.144 52.7462 461.693 53.1902 461.688 53.7424L449.545 53.6426C449.549 53.0903 449.105 52.639 448.553 52.6344L447.543 52.6261C446.991 52.6216 446.539 53.0656 446.535 53.6179L434.391 53.518C434.396 52.9658 433.952 52.5144 433.4 52.5098L432.389 52.5015C431.837 52.497 431.386 52.941 431.381 53.4933L419.238 53.3934C419.242 52.8412 418.798 52.3898 418.246 52.3853L417.236 52.377C416.683 52.3724 416.232 52.8164 416.227 53.3687L404.084 53.2689C404.088 52.7166 403.644 52.2652 403.092 52.2607L402.082 52.2524C401.53 52.2478 401.078 52.6919 401.074 53.2441L388.93 53.1443C388.935 52.592 388.491 52.1406 387.938 52.1361L386.928 52.1278C386.376 52.1233 385.925 52.5673 385.92 53.1195L373.776 53.0197C373.781 52.4674 373.337 52.0161 372.785 52.0115L371.774 52.0032C371.222 51.9987 370.771 52.4427 370.766 52.995L358.623 52.8951C358.627 52.3429 358.183 51.8915 357.631 51.8869L356.621 51.8786C356.069 51.8741 355.617 52.3181 355.613 52.8704L343.469 52.7705C343.474 52.2183 343.03 51.7669 342.477 51.7624L341.467 51.754C340.915 51.7495 340.463 52.1935 340.459 52.7458L328.315 52.646C328.32 52.0937 327.876 51.6423 327.324 51.6378L326.313 51.6295C325.761 51.6249 325.31 52.0689 325.305 52.6212L313.162 52.5214C313.166 51.9691 312.722 51.5177 312.17 51.5132L311.16 51.5049C310.607 51.5003 310.156 51.9444 310.152 52.4966L298.008 52.3968C298.013 51.8445 297.569 51.3931 297.016 51.3886L296.006 51.3803C295.454 51.3758 295.002 51.8198 294.998 52.372L282.854 52.2722C282.859 51.7199 282.415 51.2686 281.863 51.264L280.852 51.2557C280.3 51.2512 279.849 51.6952 279.844 52.2475L267.701 52.1476C267.705 51.5954 267.261 51.144 266.709 51.1394L265.699 51.1311C265.146 51.1266 264.695 51.5706 264.69 52.1229L252.547 52.023C252.551 51.4708 252.107 51.0194 251.555 51.0149L250.545 51.0066C249.993 51.002 249.541 51.446 249.537 51.9983L237.393 51.8985C237.398 51.3462 236.954 50.8948 236.401 50.8903L235.391 50.882C234.839 50.8774 234.388 51.3215 234.383 51.8737L222.24 51.7739C222.244 51.2216 221.8 50.7702 221.248 50.7657L220.238 50.7574C219.685 50.7529 219.234 51.1969 219.229 51.7491L207.086 51.6493C207.09 51.097 206.646 50.6457 206.094 50.6411L205.084 50.6328C204.532 50.6283 204.08 51.0723 204.076 51.6246L191.932 51.5247C191.937 50.9725 191.493 50.5211 190.94 50.5165L189.93 50.5082C189.378 50.5037 188.927 50.9477 188.922 51.5L176.778 51.4001C176.783 50.8479 176.339 50.3965 175.787 50.392L174.776 50.3836C174.224 50.3791 173.773 50.8231 173.768 51.3754L161.625 51.2756C161.629 50.7233 161.185 50.2719 160.633 50.2674L159.623 50.2591C159.071 50.2545 158.619 50.6985 158.615 51.2508L146.471 51.151C146.476 50.5987 146.032 50.1473 145.479 50.1428L144.469 50.1345C143.917 50.1299 143.465 50.574 143.461 51.1262L131.317 51.0264C131.322 50.4741 130.878 50.0227 130.326 50.0182L129.315 50.0099C128.763 50.0054 128.312 50.4494 128.307 51.0016L116.164 50.9018C116.168 50.3495 115.724 49.8982 115.172 49.8936L114.162 49.8853C113.609 49.8808 113.158 50.3248 113.154 50.8771L101.01 50.7772C101.015 50.225 100.571 49.7736 100.018 49.769L99.0081 49.7607C98.4558 49.7562 98.0044 50.2002 97.9999 50.7525L85.8564 50.6526C85.8609 50.1004 85.4169 49.649 84.8646 49.6445L83.8544 49.6362C83.3022 49.6316 82.8508 50.0756 82.8462 50.6279L70.7027 50.5281C70.7072 49.9758 70.2632 49.5244 69.711 49.5199L68.7007 49.5116C68.1485 49.507 67.6971 49.9511 67.6926 50.5033L55.5491 50.4035C55.5536 49.8512 55.1096 49.3998 54.5573 49.3953L53.5471 49.387C52.9948 49.3825 52.5434 49.8265 52.5389 50.3787L40.3954 50.2789C40.3999 49.7266 39.9559 49.2753 39.4037 49.2707L38.3935 49.2624C37.8412 49.2579 37.3898 49.7019 37.3853 50.2542L25.2417 50.1543C25.2463 49.6021 24.8023 49.1507 24.25 49.1461L23.7449 49.142C23.593 49.1407 23.4415 49.1377 23.2904 49.133C22.7465 49.1158 22.2905 49.5363 22.2605 50.0766C18.3695 49.763 14.7625 48.347 11.7779 46.1214C12.1121 45.6958 12.0473 45.079 11.6276 44.7327C11.3944 44.5403 11.1657 44.3425 10.9418 44.1394C10.5388 43.7739 9.91904 43.7984 9.54597 44.1903C6.91431 41.5567 4.99446 38.1908 4.12472 34.3853C4.65511 34.278 5.00558 33.7662 4.91044 33.2304C4.884 33.0816 4.85924 32.9321 4.83616 32.7819C4.80798 32.5986 4.78247 32.4155 4.7596 32.2329Z" stroke="#FFD028" stroke-width="2" stroke-linecap="round" stroke-linejoin="round" stroke-dasharray="1 14"/>
<path d="M38.0262 35.5747H43.255C43.1156 37.4132 42.6022 39.0439 41.7149 40.4668C40.8276 41.8771 39.5917 42.9852 38.0072 43.7911C36.4227 44.597 34.5023 45 32.246 45C30.5094 45 28.9439 44.6978 27.5495 44.0934C26.1678 43.4763 24.9826 42.6012 23.9939 41.4679C23.0179 40.322 22.27 38.9495 21.7503 37.3502C21.2306 35.7384 20.9707 33.9315 20.9707 31.9293V29.8327C20.9707 27.8305 21.2369 26.0236 21.7693 24.4118C22.3017 22.8 23.0622 21.4274 24.051 20.2941C25.0524 19.1482 26.2502 18.2668 27.6446 17.6498C29.0516 17.0327 30.6234 16.7242 32.36 16.7242C34.6164 16.7242 36.5241 17.1398 38.0832 17.9709C39.6424 18.7894 40.8529 19.9164 41.7149 21.3519C42.5768 22.7874 43.0966 24.4369 43.274 26.3006H38.0452C37.9438 25.1421 37.6903 24.1599 37.2846 23.354C36.8917 22.5481 36.2959 21.9374 35.4973 21.5219C34.7114 21.0937 33.6657 20.8797 32.36 20.8797C31.346 20.8797 30.4523 21.0685 29.6791 21.4463C28.9185 21.8241 28.2847 22.3907 27.7777 23.1462C27.2706 23.8892 26.8904 24.821 26.6368 25.9417C26.3833 27.0498 26.2566 28.3342 26.2566 29.7949V31.9293C26.2566 33.327 26.3707 34.58 26.5988 35.6881C26.827 36.7962 27.1819 37.7343 27.6636 38.5024C28.1453 39.2706 28.7664 39.8561 29.527 40.259C30.2875 40.662 31.1939 40.8635 32.246 40.8635C33.5262 40.8635 34.5657 40.662 35.3642 40.259C36.1755 39.8561 36.7903 39.2643 37.2086 38.4835C37.6396 37.7028 37.9121 36.7332 38.0262 35.5747Z" fill="white"/>
<path d="M58.314 21.2952L50.4233 44.6222H44.8902L55.2338 17.1209H58.7704L58.314 21.2952ZM64.9119 44.6222L56.9831 21.2952L56.5077 17.1209H60.0633L70.4639 44.6222H64.9119ZM64.5506 34.4037V38.5024H49.7007V34.4037H64.5506Z" fill="white"/>
<path d="M75.5977 17.1209H80.123L87.6905 37.8225L95.2391 17.1209H99.7834L89.4969 44.6222H85.8652L75.5977 17.1209ZM73.316 17.1209H77.7463L78.5448 36.1414V44.6222H73.316V17.1209ZM97.6158 17.1209H102.065V44.6222H96.8362V36.1414L97.6158 17.1209Z" fill="white"/>
<path d="M125.737 40.5424V44.6222H111.021V40.5424H125.737ZM112.618 17.1209V44.6222H107.389V17.1209H112.618ZM123.817 28.4727V32.4582H111.021V28.4727H123.817ZM125.68 17.1209V21.2196H111.021V17.1209H125.68Z" fill="white"/>
<path d="M149.999 17.1209V44.6222H144.789V17.1209H149.999ZM158.593 17.1209V21.2196H136.29V17.1209H158.593Z" fill="white"/>
<path d="M180.421 40.5424V44.6222H165.705V40.5424H180.421ZM167.302 17.1209V44.6222H162.073V17.1209H167.302ZM178.501 28.4727V32.4582H165.705V28.4727H178.501ZM180.364 17.1209V21.2196H165.705V17.1209H180.364Z" fill="white"/>
<path d="M204.759 21.2952L196.868 44.6222H191.335L201.679 17.1209H205.216L204.759 21.2952ZM211.357 44.6222L203.428 21.2952L202.953 17.1209H206.508L216.909 44.6222H211.357ZM210.996 34.4037V38.5024H196.146V34.4037H210.996Z" fill="white"/>
<path d="M224.876 36.3114L236.569 17.1209H241.817V44.6222H236.569V25.4317L224.876 44.6222H219.647V17.1209H224.876V36.3114ZM233.527 10H237.178C237.178 11.0577 236.918 11.9959 236.398 12.8144C235.879 13.6328 235.137 14.275 234.174 14.741C233.223 15.1943 232.095 15.4209 230.789 15.4209C228.824 15.4209 227.265 14.9173 226.112 13.9099C224.958 12.9025 224.382 11.5992 224.382 10H228.032C228.032 10.6674 228.241 11.2655 228.66 11.7944C229.078 12.3233 229.788 12.5877 230.789 12.5877C231.791 12.5877 232.494 12.3233 232.9 11.7944C233.318 11.2655 233.527 10.6674 233.527 10Z" fill="white"/>
<path d="M259.025 17.1209V44.6222H253.815V17.1209H259.025ZM267.619 17.1209V21.2196H245.316V17.1209H267.619Z" fill="white"/>
<path d="M276.67 17.1209V44.6222H271.441V17.1209H276.67Z" fill="white"/>
<path d="M306.883 34.4603H299.296L297.395 33.6859C295.265 33.0185 293.637 32.0112 292.508 30.6638C291.38 29.3164 290.816 27.6102 290.816 25.5451C290.816 23.7192 291.222 22.1829 292.033 20.9363C292.857 19.6771 294.023 18.7264 295.532 18.0842C297.053 17.442 298.853 17.1209 300.932 17.1209H310.401V44.6222H305.153V21.2196H300.932C299.271 21.2196 298.041 21.6289 297.243 22.4474C296.444 23.2659 296.045 24.4055 296.045 25.8662C296.045 26.8861 296.222 27.7487 296.577 28.4539C296.945 29.159 297.484 29.6879 298.194 30.0405C298.916 30.3931 299.81 30.5693 300.875 30.5693H306.864L306.883 34.4603ZM301.217 32.2693L294.923 44.6222H289.276L295.608 32.2693H301.217Z" fill="white"/>
<path d="M320.801 17.1209V44.6222H315.572V17.1209H320.801ZM337.286 17.1209L326.353 33.0248H319.489L318.805 28.4539H323.52L330.917 17.1209H337.286ZM331.905 44.6222L323.558 32.1937L327.076 28.3594L338.161 44.6222H331.905Z" fill="white"/>
<path d="M359 40.5424V44.6222H344.283V40.5424H359ZM345.88 17.1209V44.6222H340.652V17.1209H345.88ZM357.08 28.4727V32.4582H344.283V28.4727H357.08ZM358.943 17.1209V21.2196H344.283V17.1209H358.943Z" fill="white"/>
<path d="M383.262 17.1209V44.6222H378.052V17.1209H383.262ZM391.856 17.1209V21.2196H369.553V17.1209H391.856Z" fill="white"/>
<path d="M417.221 30.1727V31.5893C417.221 33.667 416.942 35.537 416.384 37.1991C415.826 38.8487 415.034 40.2527 414.007 41.4112C412.981 42.5697 411.757 43.4575 410.338 44.0745C408.918 44.6915 407.34 45 405.603 45C403.892 45 402.32 44.6915 400.888 44.0745C399.468 43.4575 398.238 42.5697 397.199 41.4112C396.16 40.2527 395.355 38.8487 394.784 37.1991C394.214 35.537 393.929 33.667 393.929 31.5893V30.1727C393.929 28.0824 394.214 26.2124 394.784 24.5629C395.355 22.9133 396.153 21.5093 397.18 20.3508C398.207 19.1797 399.43 18.2857 400.85 17.6686C402.282 17.0516 403.854 16.7431 405.565 16.7431C407.302 16.7431 408.88 17.0516 410.3 17.6686C411.719 18.2857 412.943 19.1797 413.969 20.3508C415.009 21.5093 415.807 22.9133 416.365 24.5629C416.935 26.2124 417.221 28.0824 417.221 30.1727ZM411.935 31.5893V30.1349C411.935 28.6364 411.795 27.3206 411.517 26.1873C411.238 25.0414 410.826 24.0781 410.281 23.2974C409.736 22.5166 409.064 21.9311 408.265 21.5407C407.467 21.1378 406.567 20.9363 405.565 20.9363C404.551 20.9363 403.651 21.1378 402.865 21.5407C402.092 21.9311 401.433 22.5166 400.888 23.2974C400.343 24.0781 399.924 25.0414 399.633 26.1873C399.354 27.3206 399.215 28.6364 399.215 30.1349V31.5893C399.215 33.0752 399.354 34.3911 399.633 35.537C399.924 36.6829 400.343 37.6525 400.888 38.4458C401.445 39.2265 402.117 39.8183 402.903 40.2213C403.689 40.6242 404.589 40.8257 405.603 40.8257C406.617 40.8257 407.517 40.6242 408.303 40.2213C409.089 39.8183 409.748 39.2265 410.281 38.4458C410.826 37.6525 411.238 36.6829 411.517 35.537C411.795 34.3911 411.935 33.0752 411.935 31.5893Z" fill="white"/>
<path d="M439.467 17.1209V21.2196H426.804V44.6222H421.594V17.1209H439.467ZM425.111 27.415H431.823C433.966 27.415 435.804 27.7739 437.337 28.4916C438.871 29.1968 440.044 30.1853 440.855 31.4571C441.679 32.7289 442.091 34.2211 442.091 35.9336C442.091 37.218 441.856 38.3891 441.387 39.4468C440.931 40.5046 440.259 41.4238 439.372 42.2045C438.485 42.9727 437.407 43.5708 436.14 43.9989C434.872 44.4145 433.433 44.6222 431.823 44.6222H421.594V17.1209H426.842V40.5424H431.823C432.964 40.5424 433.909 40.3283 434.656 39.9002C435.404 39.472 435.962 38.9054 436.33 38.2002C436.697 37.4951 436.881 36.7269 436.881 35.8958C436.881 35.0774 436.697 34.3344 436.33 33.667C435.962 32.9996 435.404 32.4708 434.656 32.0804C433.909 31.6901 432.964 31.4949 431.823 31.4949H425.111V27.415Z" fill="white"/>
<path d="M451.674 17.1209V44.6222H446.445V17.1209H451.674Z" fill="white"/>
<path d="M489.245 17.1209V44.6222H484.017V21.2196H472.304V44.6222H467.075V17.1209H489.245Z" fill="white"/>
<path d="M517.044 30.1727V31.5893C517.044 33.667 516.765 35.537 516.207 37.1991C515.649 38.8487 514.857 40.2527 513.83 41.4112C512.804 42.5697 511.58 43.4575 510.161 44.0745C508.741 44.6915 507.163 45 505.426 45C503.715 45 502.143 44.6915 500.711 44.0745C499.291 43.4575 498.062 42.5697 497.022 41.4112C495.983 40.2527 495.178 38.8487 494.607 37.1991C494.037 35.537 493.752 33.667 493.752 31.5893V30.1727C493.752 28.0824 494.037 26.2124 494.607 24.5629C495.178 22.9133 495.976 21.5093 497.003 20.3508C498.03 19.1797 499.253 18.2857 500.673 17.6686C502.105 17.0516 503.677 16.7431 505.388 16.7431C507.125 16.7431 508.703 17.0516 510.123 17.6686C511.542 18.2857 512.766 19.1797 513.792 20.3508C514.832 21.5093 515.63 22.9133 516.188 24.5629C516.759 26.2124 517.044 28.0824 517.044 30.1727ZM511.758 31.5893V30.1349C511.758 28.6364 511.618 27.3206 511.34 26.1873C511.061 25.0414 510.649 24.0781 510.104 23.2974C509.559 22.5166 508.887 21.9311 508.088 21.5407C507.29 21.1378 506.39 20.9363 505.388 20.9363C504.374 20.9363 503.474 21.1378 502.688 21.5407C501.915 21.9311 501.256 22.5166 500.711 23.2974C500.166 24.0781 499.747 25.0414 499.456 26.1873C499.177 27.3206 499.038 28.6364 499.038 30.1349V31.5893C499.038 33.0752 499.177 34.3911 499.456 35.537C499.747 36.6829 500.166 37.6525 500.711 38.4458C501.269 39.2265 501.94 39.8183 502.726 40.2213C503.512 40.6242 504.412 40.8257 505.426 40.8257C506.44 40.8257 507.34 40.6242 508.126 40.2213C508.912 39.8183 509.571 39.2265 510.104 38.4458C510.649 37.6525 511.061 36.6829 511.34 35.537C511.618 34.3911 511.758 33.0752 511.758 31.5893Z" fill="white"/>
<path d="M532.255 17.1209V44.6222H527.045V17.1209H532.255ZM540.849 17.1209V21.2196H518.546V17.1209H540.849Z" fill="white"/>
<path d="M554.977 34.5926H547.846V30.5127H554.977C556.143 30.5127 557.087 30.3238 557.81 29.946C558.545 29.5557 559.084 29.0268 559.426 28.3594C559.768 27.6794 559.939 26.905 559.939 26.0362C559.939 25.1925 559.768 24.4055 559.426 23.6751C559.084 22.9448 558.545 22.3529 557.81 21.8996C557.087 21.4463 556.143 21.2196 554.977 21.2196H549.558V44.6222H544.329V17.1209H554.977C557.131 17.1209 558.969 17.5049 560.491 18.2731C562.024 19.0286 563.191 20.0801 563.989 21.4274C564.8 22.7622 565.206 24.2858 565.206 25.9984C565.206 27.7739 564.8 29.3038 563.989 30.5882C563.191 31.8726 562.024 32.8611 560.491 33.5537C558.969 34.2463 557.131 34.5926 554.977 34.5926Z" fill="white"/>
<path d="M574.884 17.1209V44.6222H569.655V17.1209H574.884Z" fill="white"/>
<path d="M598.347 17.1209V21.2196H585.684V44.6222H580.474V17.1209H598.347ZM583.992 27.415H590.704C592.846 27.415 594.684 27.7739 596.218 28.4916C597.752 29.1968 598.924 30.1853 599.735 31.4571C600.559 32.7289 600.971 34.2211 600.971 35.9336C600.971 37.218 600.737 38.3891 600.268 39.4468C599.811 40.5046 599.14 41.4238 598.252 42.2045C597.365 42.9727 596.287 43.5708 595.02 43.9989C593.752 44.4145 592.314 44.6222 590.704 44.6222H580.474V17.1209H585.722V40.5424H590.704C591.844 40.5424 592.789 40.3283 593.537 39.9002C594.285 39.472 594.842 38.9054 595.21 38.2002C595.578 37.4951 595.761 36.7269 595.761 35.8958C595.761 35.0774 595.578 34.3344 595.21 33.667C594.842 32.9996 594.285 32.4708 593.537 32.0804C592.789 31.6901 591.844 31.4949 590.704 31.4949H583.992V27.415Z" fill="white"/>
<path d="M623.351 28.4727V32.5526H608.786V28.4727H623.351ZM610.212 17.1209V44.6222H604.983V17.1209H610.212ZM627.229 17.1209V44.6222H622.001V17.1209H627.229Z" fill="white"/>
<path d="M654.971 30.1727V31.5893C654.971 33.667 654.692 35.537 654.134 37.1991C653.576 38.8487 652.784 40.2527 651.757 41.4112C650.731 42.5697 649.507 43.4575 648.088 44.0745C646.668 44.6915 645.09 45 643.353 45C641.642 45 640.07 44.6915 638.638 44.0745C637.218 43.4575 635.988 42.5697 634.949 41.4112C633.91 40.2527 633.105 38.8487 632.534 37.1991C631.964 35.537 631.679 33.667 631.679 31.5893V30.1727C631.679 28.0824 631.964 26.2124 632.534 24.5629C633.105 22.9133 633.903 21.5093 634.93 20.3508C635.957 19.1797 637.18 18.2857 638.6 17.6686C640.032 17.0516 641.604 16.7431 643.315 16.7431C645.052 16.7431 646.63 17.0516 648.05 17.6686C649.469 18.2857 650.693 19.1797 651.719 20.3508C652.759 21.5093 653.557 22.9133 654.115 24.5629C654.685 26.2124 654.971 28.0824 654.971 30.1727ZM649.685 31.5893V30.1349C649.685 28.6364 649.545 27.3206 649.267 26.1873C648.988 25.0414 648.576 24.0781 648.031 23.2974C647.486 22.5166 646.814 21.9311 646.015 21.5407C645.217 21.1378 644.317 20.9363 643.315 20.9363C642.301 20.9363 641.401 21.1378 640.615 21.5407C639.842 21.9311 639.183 22.5166 638.638 23.2974C638.093 24.0781 637.674 25.0414 637.383 26.1873C637.104 27.3206 636.965 28.6364 636.965 30.1349V31.5893C636.965 33.0752 637.104 34.3911 637.383 35.537C637.674 36.6829 638.093 37.6525 638.638 38.4458C639.195 39.2265 639.867 39.8183 640.653 40.2213C641.439 40.6242 642.339 40.8257 643.353 40.8257C644.367 40.8257 645.267 40.6242 646.053 40.2213C646.839 39.8183 647.498 39.2265 648.031 38.4458C648.576 37.6525 648.988 36.6829 649.267 35.537C649.545 34.3911 649.685 33.0752 649.685 31.5893Z" fill="white"/>
</svg>
