<svg width="35" height="44" viewBox="0 0 35 44" fill="none" xmlns="http://www.w3.org/2000/svg">
<path d="M17.1429 20.5714C18.4936 20.5714 19.8311 20.3054 21.079 19.7885C22.3269 19.2716 23.4608 18.5139 24.416 17.5588C25.3711 16.6037 26.1287 15.4698 26.6456 14.2219C27.1625 12.974 27.4286 11.6365 27.4286 10.2857C27.4286 8.93498 27.1625 7.59746 26.6456 6.34954C26.1287 5.10162 25.3711 3.96773 24.416 3.01262C23.4608 2.0575 22.3269 1.29986 21.079 0.782954C19.8311 0.266048 18.4936 -2.84647e-08 17.1429 0C14.4149 5.74871e-08 11.7987 1.08367 9.86976 3.01262C7.94081 4.94156 6.85714 7.55777 6.85714 10.2857C6.85714 13.0137 7.94081 15.6299 9.86976 17.5588C11.7987 19.4878 14.4149 20.5714 17.1429 20.5714ZM0 30.2857C0 28.9217 0.541835 27.6136 1.50631 26.6492C2.47078 25.6847 3.77889 25.1429 5.14286 25.1429H29.1429C30.5068 25.1429 31.8149 25.6847 32.7794 26.6492C33.7439 27.6136 34.2857 28.9217 34.2857 30.2857V31.4286C34.2857 31.4286 34.2857 43.4286 17.1429 43.4286C0 43.4286 0 31.4286 0 31.4286V30.2857Z" fill="#FFD028"/>
</svg>
