<svg width="64" height="32" viewBox="0 0 64 32" fill="none" xmlns="http://www.w3.org/2000/svg">
<path d="M32 18C36.3467 18 40.1867 19.04 43.3067 20.4C46.1867 21.68 48 24.56 48 27.68V29.3333C48 30.8 46.8 32 45.3333 32H18.6667C17.2 32 16 30.8 16 29.3333V27.7067C16 24.56 17.8133 21.68 20.6933 20.4267C23.8133 19.04 27.6533 18 32 18ZM10.6667 18.6667C13.6 18.6667 16 16.2667 16 13.3333C16 10.4 13.6 8 10.6667 8C7.73334 8 5.33334 10.4 5.33334 13.3333C5.33334 16.2667 7.73334 18.6667 10.6667 18.6667ZM13.68 21.6C12.6933 21.44 11.7067 21.3333 10.6667 21.3333C8.02667 21.3333 5.52 21.8933 3.25334 22.88C2.28723 23.2929 1.4638 23.9807 0.885382 24.8578C0.306967 25.7349 -0.000916497 26.7627 2.04932e-06 27.8133V29.3333C2.04932e-06 30.8 1.2 32 2.66667 32H12V27.7067C12 25.4933 12.6133 23.4133 13.68 21.6ZM53.3333 18.6667C56.2667 18.6667 58.6667 16.2667 58.6667 13.3333C58.6667 10.4 56.2667 8 53.3333 8C50.4 8 48 10.4 48 13.3333C48 16.2667 50.4 18.6667 53.3333 18.6667ZM64 27.8133C64 25.6533 62.72 23.7333 60.7467 22.88C58.4084 21.8597 55.8846 21.3331 53.3333 21.3333C52.2933 21.3333 51.3067 21.44 50.32 21.6C51.3867 23.4133 52 25.4933 52 27.7067V32H61.3333C62.8 32 64 30.8 64 29.3333V27.8133ZM32 0C36.4267 0 40 3.57333 40 8C40 12.4267 36.4267 16 32 16C27.5733 16 24 12.4267 24 8C24 3.57333 27.5733 0 32 0Z" fill="#FFD028"/>
</svg>
