<svg width="55" height="55" viewBox="0 0 55 55" fill="none" xmlns="http://www.w3.org/2000/svg">
<path d="M14.2851 1.5196C17.3331 3.74093 19.7065 6.77293 21.7331 9.67426L22.9118 11.3916L24.0238 13.0316C24.58 13.8442 24.8178 14.8331 24.6919 15.8097C24.5661 16.7864 24.0852 17.6826 23.3411 18.3276L18.1385 22.1916C17.8871 22.3731 17.7102 22.6397 17.6405 22.9418C17.5709 23.2439 17.6133 23.561 17.7598 23.8343C18.9385 25.9756 21.0345 29.1649 23.4345 31.5649C25.8371 33.9649 29.1758 36.1996 31.4665 37.5116C31.7537 37.6728 32.0917 37.7179 32.4111 37.6375C32.7306 37.5572 33.0071 37.3575 33.1838 37.0796L36.5705 31.9249C37.1931 31.0979 38.1116 30.5438 39.1336 30.3788C40.1556 30.2137 41.2018 30.4505 42.0531 31.0396L43.8211 32.2636C47.1251 34.5569 50.6745 37.1623 53.3891 40.6369C53.8196 41.1911 54.0935 41.8506 54.1822 42.5467C54.2708 43.2428 54.171 43.9499 53.8931 44.5943C51.6611 49.8023 46.0131 54.2369 40.1385 54.0209L39.3385 53.9756L38.7171 53.9223L38.0291 53.8423L37.2798 53.7409L36.4665 53.6076C36.3241 53.5819 36.1818 53.5553 36.0398 53.5276L35.1438 53.3356C34.9871 53.3012 34.8307 53.2656 34.6745 53.2289L33.6985 52.9783L32.6718 52.6849L31.5998 52.3383C26.6771 50.6689 20.4291 47.3889 14.0185 40.9783C7.61046 34.5703 4.33046 28.3223 2.66113 23.3996L2.31446 22.3276L2.02113 21.3009L1.77046 20.3249L1.56246 19.4023C1.50238 19.1133 1.44638 18.8235 1.39446 18.5329L1.26113 17.7196L1.15446 16.9703L1.07713 16.2823L1.0238 15.6609L0.981129 14.8609C0.765129 9.00493 5.2478 3.31693 10.4318 1.0956C11.0557 0.826177 11.739 0.7236 12.4145 0.797933C13.0901 0.872266 13.7347 1.12096 14.2851 1.5196ZM35.9785 11.1063L36.2878 11.1409C38.2289 11.4833 40.0117 12.4314 41.3808 13.8494C42.7499 15.2674 43.635 17.0824 43.9091 19.0343C44.0069 19.7094 43.8422 20.3963 43.4489 20.9537C43.0556 21.5111 42.4636 21.8966 41.7948 22.0309C41.1259 22.1651 40.431 22.0379 39.8531 21.6755C39.2752 21.313 38.8582 20.7428 38.6878 20.0823L38.6265 19.7756C38.5192 19.0105 38.1926 18.2929 37.6863 17.7094C37.1799 17.1259 36.5155 16.7016 35.7731 16.4876L35.3598 16.3943C34.6902 16.2756 34.0912 15.9056 33.6854 15.3599C33.2796 14.8142 33.0976 14.1341 33.1766 13.4587C33.2556 12.7832 33.5897 12.1635 34.1105 11.7262C34.6313 11.2889 35.2995 11.0672 35.9785 11.1063ZM35.9998 2.9996C40.2433 2.9996 44.3129 4.68531 47.3135 7.68589C50.3141 10.6865 51.9998 14.7561 51.9998 18.9996C51.999 19.6793 51.7388 20.333 51.2722 20.8272C50.8056 21.3215 50.1679 21.6189 49.4894 21.6587C48.8109 21.6986 48.1428 21.4778 47.6216 21.0416C47.1004 20.6053 46.7654 19.9865 46.6851 19.3116L46.6665 18.9996C46.6675 16.2914 45.6378 13.6843 43.7864 11.7077C41.9351 9.73105 39.4009 8.53305 36.6985 8.35693L35.9998 8.33293C35.2926 8.33293 34.6143 8.05198 34.1142 7.55188C33.6141 7.05179 33.3331 6.37351 33.3331 5.66627C33.3331 4.95902 33.6141 4.28074 34.1142 3.78065C34.6143 3.28055 35.2926 2.9996 35.9998 2.9996Z" fill="#FFD028"/>
</svg>
