<svg width="52" height="44" viewBox="0 0 52 44" fill="none" xmlns="http://www.w3.org/2000/svg">
<path d="M48 0H4C2.93913 0 1.92172 0.421427 1.17157 1.17157C0.421427 1.92172 0 2.93913 0 4V40C0 41.0609 0.421427 42.0783 1.17157 42.8284C1.92172 43.5786 2.93913 44 4 44H7.3475C7.72602 44.0001 8.0968 43.8928 8.41676 43.6906C8.73671 43.4883 8.99271 43.1995 9.155 42.8575C10.1275 40.8042 11.663 39.0692 13.5829 37.8542C15.5027 36.6392 17.728 35.9942 20 35.9942C22.272 35.9942 24.4973 36.6392 26.4171 37.8542C28.337 39.0692 29.8725 40.8042 30.845 42.8575C31.0073 43.1995 31.2633 43.4883 31.5832 43.6906C31.9032 43.8928 32.274 44.0001 32.6525 44H48C49.0609 44 50.0783 43.5786 50.8284 42.8284C51.5786 42.0783 52 41.0609 52 40V4C52 2.93913 51.5786 1.92172 50.8284 1.17157C50.0783 0.421427 49.0609 0 48 0ZM20 32C18.4177 32 16.871 31.5308 15.5554 30.6518C14.2398 29.7727 13.2145 28.5233 12.609 27.0615C12.0035 25.5997 11.845 23.9911 12.1537 22.4393C12.4624 20.8874 13.2243 19.462 14.3431 18.3431C15.462 17.2243 16.8874 16.4624 18.4393 16.1537C19.9911 15.845 21.5997 16.0035 23.0615 16.609C24.5233 17.2145 25.7727 18.2398 26.6518 19.5554C27.5308 20.871 28 22.4177 28 24C28 26.1217 27.1571 28.1566 25.6569 29.6569C24.1566 31.1571 22.1217 32 20 32ZM48 40H33.8575C32.9856 38.4967 31.8743 37.1456 30.5675 36H42C42.5304 36 43.0391 35.7893 43.4142 35.4142C43.7893 35.0391 44 34.5304 44 34V10C44 9.46957 43.7893 8.96086 43.4142 8.58579C43.0391 8.21071 42.5304 8 42 8H10C9.46957 8 8.96086 8.21071 8.58579 8.58579C8.21071 8.96086 8 9.46957 8 10V34C7.99978 34.4436 8.14701 34.8746 8.41855 35.2254C8.69009 35.5761 9.07052 35.8266 9.5 35.9375C8.16303 37.0959 7.02834 38.4688 6.1425 40H4V4H48V40Z" fill="#FFD028"/>
</svg>
