<svg width="54" height="38" viewBox="0 0 54 38" fill="none" xmlns="http://www.w3.org/2000/svg">
<path d="M35 13.6667L47.1413 7.59733C47.5478 7.39423 47.9994 7.29835 48.4533 7.31879C48.9072 7.33923 49.3484 7.47533 49.735 7.71415C50.1215 7.95297 50.4406 8.2866 50.662 8.68339C50.8834 9.08018 50.9998 9.52696 51 9.98133V28.0187C50.9998 28.473 50.8834 28.9198 50.662 29.3166C50.4406 29.7134 50.1215 30.047 49.735 30.2859C49.3484 30.5247 48.9072 30.6608 48.4533 30.6812C47.9994 30.7017 47.5478 30.6058 47.1413 30.4027L35 24.3333V13.6667ZM3 8.33333C3 6.91885 3.5619 5.56229 4.5621 4.5621C5.56229 3.5619 6.91885 3 8.33333 3H29.6667C31.0812 3 32.4377 3.5619 33.4379 4.5621C34.4381 5.56229 35 6.91885 35 8.33333V29.6667C35 31.0812 34.4381 32.4377 33.4379 33.4379C32.4377 34.4381 31.0812 35 29.6667 35H8.33333C6.91885 35 5.56229 34.4381 4.5621 33.4379C3.5619 32.4377 3 31.0812 3 29.6667V8.33333Z" fill="#FFD028" stroke="#FFD028" stroke-width="5.33333" stroke-linecap="round" stroke-linejoin="round"/>
</svg>
