<svg width="58" height="44" viewBox="0 0 58 44" fill="none" xmlns="http://www.w3.org/2000/svg">
<path fill-rule="evenodd" clip-rule="evenodd" d="M13.1604 1.63516C13.7604 2.23525 14.0974 3.04903 14.0974 3.89756C14.0974 4.74608 13.7604 5.55987 13.1604 6.15996C11.0802 8.24002 9.42999 10.7095 8.30415 13.4273C7.1783 16.1452 6.59883 19.0582 6.59883 22C6.59883 24.9418 7.1783 27.8548 8.30415 30.5726C9.42999 33.2904 11.0802 35.7599 13.1604 37.84C13.4661 38.1352 13.7099 38.4883 13.8776 38.8787C14.0453 39.2691 14.1336 39.689 14.1372 40.1139C14.1409 40.5388 14.06 40.9601 13.8991 41.3534C13.7382 41.7467 13.5006 42.104 13.2001 42.4044C12.8997 42.7049 12.5424 42.9425 12.1491 43.1034C11.7558 43.2643 11.3345 43.3453 10.9096 43.3416C10.4847 43.3379 10.0648 43.2496 9.67435 43.0819C9.28394 42.9142 8.93083 42.6704 8.63564 42.3648C5.96128 39.6904 3.83986 36.5155 2.3925 33.0213C0.945141 29.5271 0.200195 25.7821 0.200195 22C0.200195 18.2179 0.945141 14.4728 2.3925 10.9786C3.83986 7.4844 5.96128 4.30949 8.63564 1.63516C9.23573 1.03525 10.0495 0.698242 10.898 0.698242C11.7466 0.698242 12.5604 1.03525 13.1604 1.63516ZM44.8404 1.63516C45.4405 1.03525 46.2543 0.698242 47.1028 0.698242C47.9514 0.698242 48.7652 1.03525 49.3652 1.63516C52.0396 4.30949 54.161 7.4844 55.6084 10.9786C57.0558 14.4728 57.8007 18.2179 57.8007 22C57.8007 25.7821 57.0558 29.5271 55.6084 33.0213C54.161 36.5155 52.0396 39.6904 49.3652 42.3648C49.0701 42.6704 48.717 42.9142 48.3265 43.0819C47.9361 43.2496 47.5162 43.3379 47.0913 43.3416C46.6664 43.3453 46.2451 43.2643 45.8518 43.1034C45.4585 42.9425 45.1012 42.7049 44.8008 42.4044C44.5003 42.104 44.2627 41.7467 44.1018 41.3534C43.9409 40.9601 43.86 40.5388 43.8636 40.1139C43.8673 39.689 43.9556 39.2691 44.1233 38.8787C44.291 38.4883 44.5348 38.1352 44.8404 37.84C46.9207 35.7599 48.5709 33.2904 49.6967 30.5726C50.8226 27.8548 51.4021 24.9418 51.4021 22C51.4021 19.0582 50.8226 16.1452 49.6967 13.4273C48.5709 10.7095 46.9207 8.24002 44.8404 6.15996C44.2405 5.55987 43.9035 4.74608 43.9035 3.89756C43.9035 3.04903 44.2405 2.23525 44.8404 1.63516ZM22.2132 10.6848C22.8132 11.2848 23.1502 12.0986 23.1502 12.9472C23.1502 13.7957 22.8132 14.6095 22.2132 15.2096C21.3216 16.101 20.6144 17.1594 20.1318 18.3242C19.6493 19.4891 19.4009 20.7375 19.4009 21.9984C19.4009 23.2592 19.6493 24.5077 20.1318 25.6725C20.6144 26.8373 21.3216 27.8957 22.2132 28.7872C22.5103 29.0845 22.746 29.4374 22.9067 29.8258C23.0674 30.2141 23.15 30.6304 23.1499 31.0507C23.1497 31.471 23.0668 31.8872 22.9058 32.2754C22.7448 32.6637 22.509 33.0165 22.2116 33.3136C21.9143 33.6107 21.5614 33.8463 21.173 34.007C20.7847 34.1677 20.3684 34.2504 19.9481 34.2502C19.5278 34.2501 19.1116 34.1671 18.7234 34.0061C18.3351 33.8452 17.9823 33.6093 17.6852 33.312C14.6857 30.3115 13.0007 26.2426 13.0007 22C13.0007 17.7573 14.6857 13.6884 17.6852 10.688C17.9824 10.3904 18.3354 10.1544 18.7238 9.99337C19.1123 9.83233 19.5287 9.74944 19.9492 9.74944C20.3698 9.74944 20.7862 9.83233 21.1747 9.99337C21.5631 10.1544 21.9161 10.3872 22.2132 10.6848ZM35.7876 10.6848C36.0848 10.3872 36.4378 10.1512 36.8262 9.99017C37.2147 9.82913 37.6311 9.74624 38.0516 9.74624C38.4722 9.74624 38.8886 9.82913 39.2771 9.99017C39.6655 10.1512 40.0185 10.3872 40.3156 10.6848C41.8018 12.1706 42.9808 13.9346 43.7851 15.876C44.5894 17.8175 45.0034 19.8985 45.0034 22C45.0034 24.1015 44.5894 26.1824 43.7851 28.1239C42.9808 30.0654 41.8018 31.8294 40.3156 33.3152C39.7152 33.9156 38.9008 34.2529 38.0516 34.2529C37.2025 34.2529 36.3881 33.9156 35.7876 33.3152C35.1872 32.7147 34.8499 31.9003 34.8499 31.0512C34.8499 30.202 35.1872 29.3876 35.7876 28.7872C37.5874 26.9869 38.5984 24.5455 38.5984 22C38.5984 19.4544 37.5874 17.013 35.7876 15.2128C35.4901 14.9156 35.2541 14.5626 35.0931 14.1742C34.932 13.7857 34.8491 13.3693 34.8491 12.9488C34.8491 12.5282 34.932 12.1118 35.0931 11.7233C35.2541 11.3349 35.4901 10.982 35.7876 10.6848ZM29.0004 18.8C29.8491 18.8 30.6631 19.1371 31.2632 19.7372C31.8633 20.3373 32.2004 21.1513 32.2004 22V22.032C32.2004 22.8807 31.8633 23.6946 31.2632 24.2947C30.6631 24.8948 29.8491 25.232 29.0004 25.232C28.1518 25.232 27.3378 24.8948 26.7377 24.2947C26.1376 23.6946 25.8004 22.8807 25.8004 22.032V22C25.8004 21.1513 26.1376 20.3373 26.7377 19.7372C27.3378 19.1371 28.1518 18.8 29.0004 18.8Z" fill="#FFD028"/>
</svg>
