<svg width="50" height="50" viewBox="0 0 50 50" fill="none" xmlns="http://www.w3.org/2000/svg">
<g clip-path="url(#clip0_203_303)">
<path d="M44.4444 6.94434H5.55556C4.08213 6.94434 2.66905 7.52965 1.62718 8.57152C0.585316 9.61339 0 11.0265 0 12.4999L0 24.9999H50V12.4999C50 11.0265 49.4147 9.61339 48.3728 8.57152C47.3309 7.52965 45.9179 6.94434 44.4444 6.94434V6.94434Z" fill="#005BBB"/>
<path d="M50 37.5C50 38.9734 49.4147 40.3865 48.3728 41.4284C47.3309 42.4702 45.9179 43.0556 44.4444 43.0556H5.55556C4.08213 43.0556 2.66905 42.4702 1.62718 41.4284C0.585316 40.3865 0 38.9734 0 37.5V25H50V37.5Z" fill="#FFD500"/>
</g>
<defs>
<clipPath id="clip0_203_303">
<rect width="50" height="50" fill="white"/>
</clipPath>
</defs>
</svg>
