<svg width="331" height="32" viewBox="0 0 331 32" fill="none" xmlns="http://www.w3.org/2000/svg">
<path d="M22.2338 23.0672C22.0796 23.6672 21.9112 24.2316 21.7287 24.7509C19.3477 24.5395 16.9529 24.5333 14.5708 24.7322C14.3807 24.1845 14.2141 23.629 14.0713 23.0672H13.1477C13.2982 23.6784 13.4665 24.2653 13.6528 24.8203C12.062 24.9847 10.4867 25.2734 8.94134 25.6838C8.0444 24.9132 7.24694 24.0346 6.56728 23.0681H5.47901C6.83711 25.192 8.71031 26.9404 10.9256 28.152C13.1408 29.3635 15.6267 29.9991 18.1535 30C20.6801 29.9987 23.1657 29.3628 25.3806 28.1511C27.5955 26.9394 29.4683 25.1909 30.8261 23.0672H29.7388C29.0475 24.0497 28.2339 24.9422 27.3187 25.7213C25.7864 25.3074 24.224 25.0137 22.6458 24.8428C22.8339 24.2812 23.0051 23.6869 23.1584 23.0662H22.2348L22.2338 23.0672ZM9.82456 26.3831C11.1884 26.0616 12.5739 25.83 13.9688 25.6922C14.5238 27.1022 15.2518 28.2628 15.9723 28.9922C13.7468 28.6127 11.6414 27.7192 9.82456 26.3831ZM18.1526 29.1675C17.0116 29.1675 15.8321 27.8306 14.9047 25.6078C17.065 25.4394 19.2353 25.4441 21.3948 25.6219C20.4683 27.8363 19.2916 29.1675 18.1526 29.1675ZM26.4336 26.4169C24.6271 27.7338 22.5388 28.6153 20.3329 28.9922C21.0505 28.2656 21.7757 27.1125 22.3298 25.7109C23.7124 25.8544 25.0838 26.0897 26.4336 26.4169ZM21.4277 12.3703V8.46844H18.2852C17.3197 8.33366 16.3469 8.25665 15.3722 8.23781C11.7509 8.23781 9.26866 9.55969 9.26866 12.4781C9.26866 18.2231 17.576 15.7191 17.576 17.8687C17.576 18.5297 16.9129 18.8991 15.28 18.8991C14.0469 18.8991 12.968 18.6366 12.5052 18.3919V17.5622H9.36178V21.4641H12.5062C13.5277 21.5991 14.5567 21.6759 15.5876 21.6937C20.3498 21.6937 21.9375 19.7587 21.9375 17.3934C21.9375 11.6794 13.554 14.3053 13.554 12.0169C13.554 11.4637 14.124 11.0344 15.5876 11.0344C16.7285 11.0344 17.8224 11.295 18.2852 11.5406V12.3703H21.4287H21.4277ZM0.0151008 18.1912V21.4163H8.41461V18.1912H6.30203V11.6475H8.41366V8.41969H0.0141602V11.6456H2.12579V18.1894H0.0151008V18.1912ZM29.7369 6.93281H30.8252C29.4675 4.80921 27.5948 3.06083 25.38 1.84913C23.1653 0.637426 20.68 0.00147379 18.1535 0C15.6266 0.00091488 13.1406 0.636605 10.9253 1.84834C8.71007 3.06007 6.83694 4.80875 5.47901 6.93281H6.56728C7.25862 5.95031 8.07223 5.05781 8.98743 4.27875C10.5197 4.69254 12.0821 4.98624 13.6603 5.15719C13.4648 5.74173 13.2938 6.33411 13.1477 6.93281H14.0713C14.2256 6.33281 14.394 5.77031 14.5764 5.25C16.9575 5.46071 19.3523 5.46698 21.7344 5.26875C21.915 5.78344 22.0824 6.34125 22.2329 6.93281H23.1565C23.0126 6.34253 22.8447 5.7583 22.6533 5.18156C24.2434 5.01663 25.8181 4.72762 27.3629 4.31719C28.2601 5.08749 29.0575 5.96612 29.7369 6.93281ZM13.9754 4.29C12.5931 4.14658 11.2221 3.91074 9.87158 3.58406C11.6776 2.26693 13.7656 1.38538 15.9713 1.00875C15.2546 1.73531 14.5285 2.88938 13.9754 4.29ZM18.2457 4.51687C17.116 4.51687 15.9977 4.46906 14.9103 4.37906C15.8368 2.16562 17.0135 0.8325 18.1535 0.8325C19.2945 0.8325 20.474 2.17125 21.4014 4.39313C20.3518 4.47483 19.2994 4.51611 18.2466 4.51687H18.2457ZM22.3373 4.30875C21.7814 2.89875 21.0534 1.73812 20.3329 1.00875C22.558 1.38833 24.6631 2.28186 26.4797 3.61781C25.1155 3.93976 23.7313 4.17059 22.3363 4.30875H22.3373ZM29.6288 8.23781C25.4676 8.23781 22.4934 10.6491 22.4934 14.9662C22.4934 19.2825 25.4676 21.6937 29.6297 21.6937C33.79 21.6937 36.7651 19.2825 36.7651 14.9662C36.7651 10.6491 33.79 8.23781 29.6297 8.23781H29.6288ZM29.6288 18.6375C27.9799 18.6375 26.9321 17.5931 26.9321 14.9662C26.9321 12.3394 27.9799 11.295 29.6297 11.295C31.2776 11.295 32.3264 12.3394 32.3264 14.9662C32.3264 17.5931 31.2776 18.6375 29.6297 18.6375H29.6288ZM43.3031 5.30813C41.5527 5.30813 40.6553 6.6225 40.6553 7.91438C40.6553 9.13219 41.6608 10.6837 43.574 10.2628L41.8875 12.9666H43.2815L45.5079 9.37969C45.7903 8.94256 45.9438 8.43516 45.9509 7.91531C45.9509 6.62156 45.0545 5.30906 43.3031 5.30906V5.30813ZM43.3031 9.315C42.3531 9.315 41.8546 8.62594 41.8546 7.91531C41.8546 7.19344 42.3418 6.43875 43.3031 6.43875C44.255 6.43875 44.7403 7.19344 44.7403 7.91531C44.7403 8.73375 44.1139 9.315 43.3031 9.315ZM49.0069 10.7812V7.59187C49.0069 6.85969 49.6766 6.42938 50.3576 6.41813C51.0602 6.40781 51.7845 6.83812 51.7845 7.59187V10.7812C51.7845 11.5359 51.0818 11.9662 50.4008 11.9662C49.7095 11.9662 49.0069 11.535 49.0069 10.7812ZM47.7963 7.59187V10.7812C47.7963 11.4712 48.0447 11.9878 48.4453 12.3759C48.942 12.8494 49.6775 13.0866 50.4008 13.0763C51.1251 13.0763 51.8494 12.8391 52.3356 12.3759C52.7467 11.9991 52.9941 11.4816 52.9941 10.7822V7.59187C52.9941 6.04125 51.665 5.2875 50.3472 5.30906C49.0605 5.31938 47.7963 6.08437 47.7963 7.59187ZM56.1704 10.7812V7.59187C56.1704 6.85969 56.8411 6.42938 57.5211 6.41813C58.2238 6.40781 58.948 6.83812 58.948 7.59187V10.7812C58.948 11.5359 58.2454 11.9662 57.5653 11.9662C56.8731 11.9662 56.1704 11.535 56.1704 10.7812ZM54.9599 7.59187V10.7812C54.9599 11.4712 55.2082 11.9878 55.6089 12.3759C56.1055 12.8494 56.8411 13.0866 57.5653 13.0763C58.2887 13.0763 59.0129 12.8391 59.4992 12.3759C59.9102 11.9991 60.1576 11.4816 60.1576 10.7822V7.59187C60.1576 6.04125 58.8295 5.2875 57.5108 5.30906C56.2241 5.31938 54.9599 6.08437 54.9599 7.59187ZM62.8129 6.59063V13.0312H64.0338V5.49094H61.894V6.59063H62.8129ZM67.8733 13.0641V11.7816H66.5565V13.0641H67.8743H67.8733ZM67.8733 8.97V7.68844H66.5565V8.97H67.8743H67.8733ZM72.4474 6.57C73.2469 6.60187 73.6467 7.06594 73.658 7.61437C73.6683 7.97062 73.5065 8.35781 73.182 8.6925L69.9078 12.2147L70.2314 13.0331H74.9005V11.9016H71.5708L74.0145 9.45656C74.544 8.88562 74.8469 8.31469 74.8469 7.66875C74.8252 6.54844 73.9063 5.53594 72.4794 5.49281C71.3883 5.46 70.4261 6.01031 69.9614 7.18406L70.9453 7.63594C71.2256 6.96844 71.7984 6.53719 72.4474 6.57ZM77.9603 10.7812V7.59187C77.9603 6.85969 78.63 6.42938 79.3109 6.41813C80.0136 6.40781 80.7378 6.83812 80.7378 7.59187V10.7812C80.7378 11.5359 80.0352 11.9662 79.3551 11.9662C78.6629 11.9662 77.9603 11.535 77.9603 10.7812ZM76.7497 7.59187V10.7812C76.7497 11.4712 76.998 11.9878 77.3987 12.3759C77.8953 12.8494 78.6309 13.0866 79.3551 13.0763C80.0785 13.0763 80.8027 12.8391 81.289 12.3759C81.6991 11.9991 81.9474 11.4816 81.9474 10.7822V7.59187C81.9474 6.04125 80.6184 5.2875 79.3006 5.30906C78.0139 5.31938 76.7497 6.08437 76.7497 7.59187ZM84.6253 6.59063V13.0312H85.8471V5.49094H83.7073V6.59063H84.6262H84.6253ZM90.5303 13.1062C91.7851 13.1062 93.0276 12.2878 93.038 10.7587C93.0493 9.89625 92.6053 9.27187 91.9036 8.91656C92.4332 8.61469 92.7464 7.99031 92.7464 7.44094C92.7464 6.08344 91.6553 5.30813 90.5303 5.30813C89.4073 5.30813 88.3049 6.08344 88.3049 7.44094C88.3049 7.93687 88.5965 8.65781 89.158 8.92781C88.509 9.315 88.0124 9.99375 88.0237 10.7587C88.034 12.2878 89.2775 13.1072 90.5303 13.1072V13.1062ZM90.5303 6.38531C91.201 6.38531 91.5358 6.94594 91.5358 7.41937C91.5358 7.89375 91.1897 8.41031 90.5303 8.41031C89.8606 8.41031 89.5145 7.89375 89.5145 7.41937C89.5145 6.94594 89.8606 6.38531 90.5303 6.38531ZM90.5303 9.46594C91.3957 9.46594 91.8378 10.1334 91.8378 10.7484C91.8378 11.3616 91.3957 12.0187 90.5303 12.0187C89.6659 12.03 89.2446 11.3719 89.2446 10.77C89.2446 10.1447 89.6772 9.46594 90.5303 9.46594ZM46.678 17.7469C45.9217 16.8309 44.9379 16.4756 43.8251 16.4756C41.3062 16.4756 39.9668 18.4791 39.9668 20.4394C39.9668 22.3997 41.3072 24.3506 43.8251 24.3506C45.0677 24.3506 46.1051 23.8219 46.9263 22.8319L46.0619 22.1634C45.4787 22.8638 44.604 23.2294 43.8251 23.2294C42.117 23.2294 41.2103 21.8081 41.2103 20.4394C41.2103 19.0613 42.0954 17.6175 43.8251 17.5856C44.5597 17.5641 45.316 17.8547 45.9001 18.4688L46.678 17.7469ZM52.916 16.6594H48.6683V24.21H52.916V23.1544H49.9117V20.9569H52.8727V19.8909H49.9117V17.7253H52.916V16.6594ZM58.4015 21.2475C59.4926 21.0863 60.357 20.3644 60.3457 18.9975C60.325 17.3269 59.1898 16.6594 57.6989 16.6594H55.2129V24.21H56.4554V21.2906H56.985L59.2114 24.21H60.6815L58.4006 21.2475H58.4015ZM56.4545 20.2031V17.7797H57.7083C58.5295 17.7797 59.1023 18.1997 59.1023 18.9966C59.1023 19.7719 58.5624 20.2031 57.7083 20.2031H56.4545ZM61.7792 16.6594V17.79H63.5739V24.2213H64.8154V17.79H66.5998V16.6594H61.7783H61.7792ZM69.4403 16.6594H68.2082V24.2316H69.4403V16.6594ZM75.7621 16.6594H71.5144V24.21H72.7578V21.0431H75.7179V19.9341H72.7569V17.7797H75.7611V16.6594H75.7621ZM79.1068 16.6594H77.8746V24.2316H79.1068V16.6594ZM85.2677 16.6594H81.02V24.21H85.2677V23.1544H82.2644V20.9569H85.2254V19.8909H82.2644V17.7253H85.2687V16.6594H85.2677ZM90.1466 16.6594H87.5647V24.2531H90.1579C92.7737 24.2634 93.8224 22.2816 93.8224 20.3531C93.8224 18.4903 92.6542 16.6481 90.1475 16.6594H90.1466ZM90.1466 23.1328H88.7959V17.7891H90.1692C91.8763 17.7891 92.6006 19.1044 92.6006 20.4394C92.6006 21.7969 91.9309 23.1647 90.1475 23.1328H90.1466Z" fill="white" fill-opacity="0.7"/>
<path d="M120.815 3.72727V11H119.295V4.97727H116.354V11H114.835V3.72727H120.815ZM124.816 3.72727V11H123.279V3.72727H124.816ZM126.687 12.7543V9.77486H127.181C127.349 9.65412 127.503 9.48366 127.642 9.26349C127.782 9.04096 127.902 8.73438 128.001 8.34375C128.1 7.95076 128.172 7.43703 128.214 6.80256L128.42 3.72727H133.232V9.77486H134.027V12.7472H132.55V11H128.164V12.7543H126.687ZM128.956 9.77486H131.755V4.99503H129.805L129.691 6.80256C129.661 7.28314 129.61 7.70928 129.539 8.08097C129.47 8.45265 129.386 8.77817 129.287 9.05753C129.19 9.33452 129.079 9.57363 128.956 9.77486ZM135.685 4.99503V3.72727H141.658V4.99503H139.432V11H137.912V4.99503H135.685ZM143.642 11V3.72727H146.511C147.063 3.72727 147.533 3.83262 147.921 4.04332C148.309 4.25166 148.605 4.54167 148.809 4.91335C149.015 5.28267 149.118 5.70881 149.118 6.19176C149.118 6.67472 149.014 7.10085 148.805 7.47017C148.597 7.83949 148.295 8.12713 147.9 8.3331C147.507 8.53906 147.031 8.64205 146.472 8.64205H144.643V7.4098H146.224C146.519 7.4098 146.763 7.3589 146.955 7.2571C147.149 7.15294 147.294 7.00971 147.388 6.82741C147.485 6.64276 147.534 6.43087 147.534 6.19176C147.534 5.95028 147.485 5.73958 147.388 5.55966C147.294 5.37737 147.149 5.23651 146.955 5.13707C146.761 5.03527 146.515 4.98438 146.216 4.98438H145.18V11H143.642ZM151.116 3.72727H152.651V8.30114H152.711L155.854 3.72727H157.2V11H155.662V6.42259H155.609L152.448 11H151.116V3.72727ZM159.47 3.72727H161.366L163.369 8.61364H163.454L165.457 3.72727H167.354V11H165.862V6.26634H165.802L163.92 10.9645H162.904L161.022 6.24858H160.961V11H159.47V3.72727ZM174.02 11L171.684 7.89986H171.158V11H169.62V3.72727H171.158V6.6321H171.467L173.882 3.72727H175.796L172.958 7.10085L175.927 11H174.02ZM178.954 11H177.306L179.817 3.72727H181.798L184.306 11H182.658L180.836 5.3892H180.779L178.954 11ZM178.851 8.14134H182.743V9.34162H178.851V8.14134ZM120.815 15.7273V23H119.295V16.9773H116.354V23H114.835V15.7273H120.815ZM122.884 23V21.7642L123.09 21.7464C123.356 21.7251 123.57 21.6245 123.733 21.4446C123.896 21.2623 124.018 20.9723 124.099 20.5746C124.182 20.1745 124.235 19.6371 124.259 18.9624L124.379 15.7273H129.316V23H127.82V16.9595H125.807L125.693 19.4915C125.655 20.3059 125.558 20.9711 125.402 21.4872C125.248 22.0033 125.002 22.3845 124.664 22.6307C124.327 22.8769 123.867 23 123.282 23H122.884ZM132.837 23H131.189L133.7 15.7273H135.681L138.188 23H136.541L134.719 17.3892H134.662L132.837 23ZM132.734 20.1413H136.626V21.3416H132.734V20.1413ZM138.898 16.995V15.7273H144.871V16.995H142.645V23H141.125V16.995H138.898ZM146.855 23V15.7273H151.755V16.995H148.392V18.728H151.503V19.9957H148.392V21.7322H151.77V23H146.855ZM159.518 15.7273V23H158.026V15.7273H159.518ZM153.633 23L155.913 19.1648L153.729 15.7273H155.622L157.256 18.7209H160.327L161.918 15.7273H163.804L161.673 19.1541L163.91 23H162.074L160.537 20.1413H157.032L155.455 23H153.633ZM167.365 15.7273V23H165.827V15.7273H167.365ZM169.63 23V15.7273H172.542C173.077 15.7273 173.523 15.8066 173.881 15.9652C174.238 16.1238 174.507 16.344 174.687 16.6257C174.867 16.9051 174.957 17.227 174.957 17.5916C174.957 17.8757 174.9 18.1255 174.786 18.3409C174.673 18.554 174.517 18.7292 174.318 18.8665C174.121 19.0014 173.896 19.0973 173.643 19.1541V19.2251C173.92 19.237 174.179 19.3151 174.421 19.4595C174.664 19.6039 174.862 19.8063 175.014 20.0668C175.165 20.3248 175.241 20.6326 175.241 20.9901C175.241 21.3759 175.145 21.7204 174.953 22.0234C174.764 22.3241 174.483 22.562 174.112 22.7372C173.74 22.9124 173.282 23 172.737 23H169.63ZM171.168 21.7429H172.421C172.85 21.7429 173.162 21.6612 173.359 21.4979C173.555 21.3321 173.654 21.112 173.654 20.8374C173.654 20.6361 173.605 20.4586 173.508 20.3047C173.411 20.1508 173.272 20.0301 173.093 19.9425C172.915 19.8549 172.703 19.8111 172.457 19.8111H171.168V21.7429ZM171.168 18.7706H172.308C172.518 18.7706 172.705 18.7339 172.869 18.6605C173.035 18.5848 173.165 18.4782 173.259 18.3409C173.356 18.2036 173.405 18.0391 173.405 17.8473C173.405 17.5845 173.311 17.3726 173.124 17.2116C172.94 17.0507 172.677 16.9702 172.336 16.9702H171.168V18.7706Z" fill="#8D949E"/>
<path d="M219.576 31.825V29.7322C219.588 29.5562 219.564 29.3797 219.504 29.2144C219.445 29.0492 219.352 28.899 219.232 28.7741C219.112 28.6483 218.967 28.5505 218.807 28.4871C218.648 28.4238 218.477 28.3963 218.307 28.4067C218.084 28.3915 217.861 28.4384 217.661 28.5426C217.462 28.6468 217.292 28.8045 217.171 28.9993C217.061 28.8102 216.904 28.6553 216.717 28.551C216.529 28.4467 216.318 28.3968 216.105 28.4067C215.919 28.397 215.734 28.4376 215.568 28.5245C215.402 28.6114 215.261 28.7417 215.158 28.9025V28.4907H214.456V31.826H215.166V29.9909C215.143 29.8187 215.176 29.6434 215.26 29.493C215.344 29.3426 215.475 29.2258 215.63 29.1613C215.733 29.118 215.844 29.0988 215.956 29.105C216.422 29.105 216.658 29.4191 216.658 29.984V31.8398H217.367V29.9909C217.345 29.8186 217.379 29.6436 217.463 29.4935C217.548 29.3434 217.678 29.2269 217.834 29.1623C217.936 29.119 218.047 29.0995 218.157 29.105C218.638 29.105 218.867 29.4191 218.867 29.984V31.8398L219.576 31.825ZM230.07 28.4907H228.916V27.4793H228.207V28.4907H227.564V29.1534H228.22V30.6882C228.22 31.4626 228.51 31.9228 229.341 31.9228C229.652 31.9238 229.956 31.8339 230.22 31.665L230.017 31.0438C229.829 31.16 229.615 31.2249 229.396 31.2324C229.058 31.2324 228.929 31.0092 228.929 30.6744V29.1534H230.077L230.07 28.4916V28.4907ZM236.063 28.4067C235.892 28.4015 235.723 28.4441 235.573 28.5302C235.423 28.6162 235.298 28.7424 235.211 28.8956V28.4907H234.517V31.826H235.219V29.9554C235.219 29.4042 235.447 29.0981 235.895 29.0981C236.044 29.0951 236.194 29.1237 236.333 29.181L236.55 28.4837C236.389 28.4243 236.22 28.3936 236.049 28.3929L236.063 28.4067ZM227.004 28.7563C226.606 28.5118 226.149 28.3905 225.686 28.4067C224.87 28.4067 224.335 28.8116 224.335 29.4744C224.335 30.0186 224.728 30.3534 225.45 30.4581L225.788 30.5075C226.173 30.5628 226.355 30.6675 226.355 30.8561C226.355 31.1139 226.098 31.2611 225.619 31.2611C225.233 31.2724 224.855 31.1493 224.545 30.9114L224.207 31.4764C224.616 31.7727 225.107 31.9238 225.606 31.909C226.538 31.909 227.078 31.4556 227.078 30.8206C227.078 30.1865 226.652 29.9277 225.95 29.823L225.612 29.7736C225.307 29.7322 225.065 29.6699 225.065 29.4467C225.065 29.2235 225.295 29.0556 225.68 29.0556C226.036 29.0601 226.384 29.1587 226.693 29.342L227.004 28.7563ZM245.822 28.4067C245.65 28.4016 245.481 28.4443 245.331 28.5303C245.181 28.6163 245.056 28.7424 244.97 28.8956V28.4907H244.275V31.826H244.976V29.9554C244.976 29.4042 245.207 29.0981 245.652 29.0981C245.802 29.0953 245.951 29.1235 246.091 29.181L246.307 28.4837C246.147 28.4244 245.978 28.3937 245.807 28.3929L245.821 28.4067H245.822ZM236.77 30.1509C236.761 30.3855 236.8 30.6193 236.884 30.8372C236.968 31.0551 237.095 31.2524 237.257 31.4161C237.419 31.5806 237.613 31.7082 237.825 31.7907C238.038 31.8732 238.265 31.9087 238.491 31.8952C238.913 31.9174 239.327 31.7758 239.653 31.4981L239.316 30.9114C239.073 31.103 238.777 31.2077 238.471 31.2117C238.212 31.19 237.97 31.068 237.793 30.87C237.66 30.7226 237.571 30.5394 237.534 30.3414C237.498 30.1434 237.516 29.9387 237.587 29.7511C237.658 29.5635 237.779 29.4005 237.935 29.2811C238.092 29.1617 238.278 29.0907 238.471 29.0763C238.776 29.0803 239.073 29.185 239.316 29.3766L239.654 28.7909C239.328 28.5126 238.913 28.3707 238.491 28.3929C238.15 28.373 237.812 28.4644 237.523 28.6543C237.235 28.8442 237.011 29.123 236.883 29.4517C236.8 29.6689 236.761 29.903 236.769 30.1371V30.1509H236.77ZM243.349 30.1509V28.4916H242.646V28.8956C242.527 28.7366 242.372 28.6093 242.196 28.5243C242.02 28.4393 241.827 28.399 241.632 28.4067C241.185 28.4067 240.755 28.5914 240.439 28.9183C240.282 29.08 240.158 29.2722 240.074 29.4838C239.989 29.6954 239.945 29.9223 239.945 30.1514C239.945 30.3806 239.989 30.6075 240.074 30.8191C240.158 31.0307 240.282 31.2228 240.439 31.3845C240.755 31.7115 241.185 31.8952 241.632 31.8952C241.827 31.9026 242.02 31.8623 242.196 31.7775C242.372 31.6927 242.526 31.5658 242.646 31.4072V31.8122H243.349V30.1509ZM240.734 30.1509C240.745 29.9542 240.812 29.7653 240.926 29.6076C241.04 29.4499 241.196 29.3304 241.375 29.264C241.553 29.1968 241.747 29.1849 241.932 29.2298C242.117 29.2747 242.285 29.3744 242.417 29.5168C242.548 29.6595 242.636 29.839 242.67 30.0332C242.704 30.2274 242.682 30.4276 242.607 30.6089C242.532 30.7902 242.407 30.9447 242.248 31.0531C242.09 31.1615 241.904 31.219 241.713 31.2186C241.512 31.2206 241.316 31.1581 241.151 31.0396C240.985 30.9211 240.859 30.7525 240.79 30.5569C240.745 30.4274 240.725 30.2895 240.734 30.1519V30.1509ZM232.256 28.4067C231.809 28.4136 231.381 28.6042 231.069 28.9351C230.915 29.099 230.793 29.2929 230.711 29.5058C230.629 29.7187 230.588 29.9462 230.591 30.1754C230.595 30.4046 230.641 30.6309 230.729 30.8413C230.817 31.0517 230.943 31.242 231.102 31.4013C231.424 31.7241 231.856 31.9017 232.304 31.8952C232.789 31.9211 233.267 31.7596 233.645 31.4418L233.307 30.9045C233.039 31.1256 232.709 31.2482 232.367 31.2532C232.135 31.2754 231.904 31.2024 231.724 31.0499C231.543 30.8974 231.427 30.6775 231.401 30.4374H233.8V30.1578C233.8 29.1109 233.172 28.4136 232.266 28.4136L232.257 28.4067H232.256ZM232.256 29.0556C232.414 29.0525 232.569 29.0977 232.702 29.1855C232.836 29.2733 232.941 29.3999 233.006 29.5494C233.049 29.6492 233.072 29.7568 233.074 29.8655H231.385C231.397 29.6406 231.493 29.4295 231.654 29.2779C231.814 29.1263 232.026 29.0464 232.243 29.0556H232.256ZM249.857 30.1578V27.1514H249.182V28.8956C249.062 28.7367 248.908 28.6095 248.732 28.5245C248.556 28.4395 248.363 28.3991 248.169 28.4067C247.721 28.4067 247.291 28.5914 246.974 28.9183C246.818 29.08 246.694 29.2722 246.609 29.4838C246.524 29.6954 246.481 29.9223 246.481 30.1514C246.481 30.3806 246.524 30.6075 246.609 30.8191C246.694 31.0307 246.818 31.2228 246.974 31.3845C247.292 31.7118 247.721 31.8953 248.169 31.8952C248.363 31.9024 248.556 31.862 248.732 31.7772C248.908 31.6924 249.062 31.5657 249.182 31.4072V31.8122H249.857V30.1578ZM251.029 31.3411C251.115 31.3402 251.199 31.3738 251.262 31.4349C251.301 31.4724 251.33 31.5196 251.346 31.5719C251.362 31.6243 251.365 31.68 251.354 31.7339C251.344 31.7877 251.32 31.8379 251.286 31.8796C251.251 31.9213 251.207 31.9532 251.158 31.9722C251.117 31.9906 251.073 32 251.029 31.9999C250.965 31.9992 250.903 31.9799 250.849 31.9441C250.795 31.9082 250.752 31.8574 250.725 31.7974C250.709 31.7571 250.7 31.7138 250.7 31.67C250.7 31.6262 250.708 31.5828 250.724 31.5425C250.741 31.5021 250.765 31.4655 250.795 31.435C250.825 31.4045 250.861 31.3806 250.901 31.3648C250.945 31.3469 250.992 31.3388 251.04 31.3411H251.03H251.029ZM251.029 31.9297C251.061 31.9299 251.092 31.9235 251.122 31.9109C251.151 31.8983 251.178 31.8799 251.2 31.8565C251.223 31.8332 251.241 31.8055 251.253 31.775C251.265 31.7445 251.271 31.7118 251.271 31.6789C251.271 31.6139 251.247 31.5515 251.204 31.504C251.169 31.4672 251.125 31.4422 251.076 31.4323C251.027 31.4225 250.977 31.4282 250.931 31.4487C250.901 31.4615 250.873 31.4803 250.85 31.504C250.808 31.5515 250.784 31.614 250.784 31.6789C250.784 31.7437 250.808 31.8062 250.85 31.8537C250.873 31.8774 250.901 31.8962 250.931 31.909C250.965 31.9242 251.002 31.9313 251.04 31.9297H251.03H251.029ZM251.05 31.5149C251.081 31.5133 251.112 31.5231 251.138 31.5426C251.148 31.5514 251.156 31.5628 251.162 31.5757C251.167 31.5886 251.169 31.6027 251.168 31.6166C251.169 31.6283 251.167 31.64 251.163 31.6509C251.159 31.6618 251.152 31.6716 251.144 31.6798C251.124 31.6976 251.099 31.7081 251.073 31.7095L251.171 31.825H251.094L251.002 31.7105H250.972V31.825H250.908V31.5189L251.05 31.5149ZM250.976 31.5742V31.6581H251.05C251.063 31.6621 251.077 31.6621 251.09 31.6581C251.092 31.6532 251.094 31.6478 251.094 31.6423C251.094 31.6368 251.092 31.6314 251.09 31.6265C251.092 31.6216 251.094 31.6162 251.094 31.6107C251.094 31.6052 251.092 31.5998 251.09 31.5949C251.077 31.5909 251.063 31.5909 251.05 31.5949L250.976 31.5752V31.5742ZM247.26 30.1578C247.271 29.9611 247.337 29.772 247.451 29.6141C247.565 29.4563 247.721 29.3366 247.899 29.2699C248.078 29.2026 248.272 29.1908 248.457 29.2359C248.643 29.2809 248.811 29.381 248.943 29.5238C249.074 29.6664 249.162 29.846 249.196 30.0401C249.23 30.2343 249.208 30.4345 249.133 30.6158C249.058 30.7971 248.933 30.9516 248.774 31.06C248.615 31.1684 248.429 31.226 248.239 31.2255C248.038 31.2275 247.842 31.165 247.676 31.0465C247.511 30.9281 247.385 30.7594 247.316 30.5638C247.27 30.4343 247.251 30.2964 247.26 30.1588V30.1578ZM223.539 30.1578V28.4907H222.836V28.8956C222.716 28.7367 222.562 28.6095 222.386 28.5245C222.21 28.4395 222.017 28.3991 221.823 28.4067C221.375 28.4067 220.945 28.5914 220.628 28.9183C220.472 29.08 220.348 29.2722 220.263 29.4838C220.178 29.6954 220.135 29.9223 220.135 30.1514C220.135 30.3806 220.178 30.6075 220.263 30.8191C220.348 31.0307 220.472 31.2228 220.628 31.3845C220.946 31.7118 221.375 31.8953 221.823 31.8952C222.017 31.9024 222.21 31.862 222.386 31.7772C222.562 31.6924 222.716 31.5657 222.836 31.4072V31.8122H223.539V30.1578ZM220.924 30.1578C220.935 29.9611 221.002 29.772 221.115 29.6141C221.229 29.4563 221.385 29.3366 221.564 29.2699C221.698 29.2201 221.84 29.2009 221.981 29.2138C222.123 29.2267 222.26 29.2713 222.383 29.3446C222.506 29.4179 222.613 29.518 222.695 29.6381C222.777 29.7583 222.833 29.8955 222.859 30.0403C222.893 30.234 222.871 30.4337 222.796 30.6146C222.722 30.7955 222.597 30.9495 222.439 31.0576C222.28 31.1662 222.094 31.2246 221.904 31.2255C221.702 31.2292 221.504 31.1677 221.337 31.0495C221.171 30.9313 221.044 30.7622 220.974 30.5658C220.928 30.4354 220.908 30.2965 220.917 30.1578H220.924Z" fill="#231F20"/>
<path d="M237.396 5.81878L235.402 5.33301L226.425 5.81878V24.2421L229.916 24.7269L237.397 24.2421V5.81786L237.396 5.81878Z" fill="#FF5F00"/>
<path d="M227.7 15.0318C227.698 13.1953 228.121 11.3826 228.936 9.73201C229.753 8.07875 230.941 6.63115 232.41 5.49908C230.587 4.09376 228.403 3.22051 226.104 2.97821C223.805 2.73592 221.483 3.13427 219.401 4.12815C217.322 5.12034 215.568 6.67008 214.338 8.60037C213.112 10.5265 212.461 12.7555 212.461 15.0308C212.461 17.3061 213.112 19.5352 214.338 21.4612C215.568 23.391 217.322 24.9404 219.4 25.9325C221.482 26.9265 223.804 27.3249 226.103 27.0826C228.402 26.8403 230.587 25.967 232.41 24.5616C230.942 23.4298 229.755 21.9829 228.938 20.3306C228.122 18.6808 227.698 16.8688 227.699 15.0327L227.7 15.0318Z" fill="#EB001B"/>
<path d="M251.361 15.0316C251.36 17.3073 250.742 19.5366 249.576 21.4626C248.408 23.3925 246.741 24.9418 244.766 25.9337C242.789 26.9272 240.583 27.3251 238.399 27.0823C236.215 26.8395 234.141 25.9657 232.41 24.56C233.803 23.4271 234.93 21.9797 235.706 20.3273C236.481 18.6775 236.884 16.8657 236.884 15.0297C236.884 13.1937 236.481 11.382 235.706 9.73215C234.93 8.08 233.803 6.63296 232.41 5.5004C234.141 4.09466 236.216 3.22101 238.399 2.97839C240.583 2.73577 242.789 3.13388 244.766 4.12763C246.741 5.11947 248.408 6.6688 249.576 8.59866C250.741 10.5245 251.36 12.7534 251.36 15.0287V15.0316H251.361ZM250.241 22.5399V22.149H250.394V22.0699H250.007V22.15H250.173V22.5408H250.241L250.241 22.5399ZM250.992 22.5399V22.0699H250.875L250.738 22.4064L250.602 22.0699H250.499V22.5408H250.583V22.1881L250.711 22.4932H250.798L250.925 22.1881V22.5447L250.993 22.5408L250.992 22.5399Z" fill="#F79E1B"/>
<path d="M289.182 3.33779L284.305 25.0687H290.216L294.944 3.33779H289.182ZM280.611 3.33779L274.553 18.0636L272.041 5.48276C271.745 4.05245 270.563 3.33779 269.381 3.33779H259.48L259.333 3.90991C261.401 4.33851 263.617 5.05415 265.096 5.76882C265.982 6.19742 266.13 6.62603 266.425 7.62676L271.006 24.9261H277.212L286.669 3.19524H280.611V3.33779ZM326.566 3.33779H321.542C320.36 3.33779 319.474 3.90991 319.031 4.91063L310.312 25.0687H316.371L317.553 21.7814H324.942L325.681 25.0687H331L326.566 3.33779ZM319.474 17.3489L322.577 9.1996L324.35 17.3489H319.474ZM302.628 9.34312C302.628 8.62748 303.367 7.77027 305.141 7.48421C306.027 7.34166 308.244 7.34166 310.904 8.48494L311.938 3.90991C310.608 3.4813 308.686 2.90918 306.47 2.90918C300.707 2.90918 296.717 5.91136 296.717 10.0578C296.717 13.2025 299.673 14.9189 301.741 15.9196C303.959 16.9203 304.697 17.635 304.697 18.6357C304.697 20.0651 302.924 20.7807 301.151 20.7807C298.195 20.7807 296.57 20.0651 295.24 19.3504L294.206 24.0689C295.535 24.6411 298.048 25.2122 300.707 25.2122C306.766 25.2122 310.755 22.3526 310.755 17.7775C310.755 12.3453 302.48 11.9167 302.628 9.34312Z" fill="#1B226F"/>
</svg>
