<svg width="22" height="12" viewBox="0 0 22 12" fill="none" xmlns="http://www.w3.org/2000/svg">
<path d="M0.484254 0.69423C0.794415 0.431206 1.21503 0.283447 1.6536 0.283447C2.09216 0.283447 2.51278 0.431206 2.82294 0.69423L11.01 7.63913L19.197 0.69423C19.509 0.43866 19.9268 0.297244 20.3604 0.300441C20.7941 0.303637 21.2089 0.451191 21.5156 0.71132C21.8222 0.97145 21.9962 1.32334 21.9999 1.69121C22.0037 2.05907 21.837 2.41347 21.5357 2.67809L12.1793 10.6149C11.8692 10.8779 11.4486 11.0257 11.01 11.0257C10.5714 11.0257 10.1508 10.8779 9.84064 10.6149L0.484254 2.67809C0.174186 2.41498 0 2.05819 0 1.68616C0 1.31413 0.174186 0.957333 0.484254 0.69423Z" fill="#DBDBDB"/>
</svg>
