<svg width="396" height="399" viewBox="0 0 396 399" fill="none" xmlns="http://www.w3.org/2000/svg">
<g opacity="0.2">
<path fill-rule="evenodd" clip-rule="evenodd" d="M198.65 0L308.559 74.7025V152.927L198.65 78.4111L161.64 103.503L104.001 64.3301L198.65 0ZM307.925 308.092L88.1063 159.06V80.9668L88.5195 80.93L307.925 230.054V308.092ZM292.331 324.928L198.026 389.025L87.4814 313.891V235.668L198.026 310.614L234.649 285.785L292.331 324.928Z" fill="black"/>
<path fill-rule="evenodd" clip-rule="evenodd" d="M331.299 299.216L358.097 281.004L357.645 220.776L395.6 194.411L357.645 168.363V108.234L330.798 89.9893V121.985V137.868V153.751V168.363L368.84 194.411L330.798 220.459V266.837V282.402L331.299 299.216ZM65.4174 299.079L39.1446 281.224L39.2704 221.092L0.99707 194.727L39.2704 168.996L39.2146 108.27L65.6552 90.301L65.8763 154.692V168.996L27.7576 194.727L65.8765 220.774L65.4174 299.079Z" fill="black"/>
</g>
</svg>
