<svg width="181" height="52" viewBox="0 0 181 52" fill="none" xmlns="http://www.w3.org/2000/svg">
<path d="M26.1426 0L40.6787 9.98529V20.4413L26.1426 10.481L21.2479 13.8349L13.6249 8.59885L26.1426 0Z" fill="#B3B4B5"/>
<path d="M40.5948 41.1818L11.5228 21.2612V10.8226L11.5774 10.8177L40.5948 30.7508V41.1818Z" fill="#B3B4B5"/>
<path d="M38.5313 43.4324L26.059 52L11.439 41.957V31.5011L26.059 41.519L30.9026 38.2001L38.5313 43.4324Z" fill="#B3B4B5"/>
<path d="M43.684 39.9955L47.2282 37.5611L47.1684 29.5106L52.1882 25.9864L47.1684 22.5047V14.4674L43.6178 12.0286V22.5047L48.649 25.9864L43.6178 29.4682V37.748L43.684 39.9955Z" fill="#B3B4B5"/>
<path d="M8.5199 39.9771L5.0452 37.5905L5.06183 29.5528L0 26.0286L5.06183 22.5893L5.05445 14.4722L8.55135 12.0703L8.58058 20.6773V22.5893L3.53921 26.0286L8.58062 29.5104L8.5199 39.9771Z" fill="#B3B4B5"/>
<path d="M69.6746 13.9333C67.4085 13.9333 65.5543 14.4313 64.0828 15.4564C62.4936 16.5109 61.7284 17.9754 61.7284 19.8207C61.7284 21.666 62.523 23.0719 64.1417 24.0385C64.7597 24.3899 66.3784 24.9757 68.9683 25.7959C71.2933 26.4988 72.6471 26.9675 73.0591 27.1725C74.3541 27.8169 75.031 28.6956 75.031 29.8086C75.031 30.6873 74.5601 31.361 73.6772 31.8882C72.7943 32.3862 71.5582 32.6498 70.0278 32.6498C68.2914 32.6498 67.0259 32.3276 66.2018 31.7418C65.2895 31.0681 64.7303 29.9258 64.4948 28.3441H61.0809C61.2281 31.0095 62.1993 32.9427 63.9651 34.1729C65.4072 35.1687 67.4379 35.6667 70.0278 35.6667C72.706 35.6667 74.7955 35.1102 76.2671 34.0557C77.7386 32.972 78.4743 31.4782 78.4743 29.6036C78.4743 27.6704 77.562 26.1766 75.7373 25.0929C74.9133 24.6243 73.0886 23.9213 70.2338 23.0426C68.2914 22.4275 67.0847 21.9881 66.6433 21.7538C65.6426 21.2266 65.1717 20.4943 65.1717 19.6156C65.1717 18.6198 65.5838 17.8875 66.4667 17.4482C67.173 17.0674 68.1737 16.8916 69.498 16.8916C71.0284 16.8916 72.2057 17.1553 72.9708 17.7411C73.736 18.2976 74.2952 19.2349 74.5895 20.5236H78.0035C77.7975 18.239 76.944 16.5402 75.4724 15.4564C74.0892 14.4313 72.1468 13.9333 69.6746 13.9333Z" fill="#B3B4B5"/>
<path d="M89.2273 19.7035C87.2849 19.7035 85.7545 20.0257 84.6361 20.7287C83.3118 21.4902 82.4877 22.7204 82.164 24.3899L85.4896 24.6535C85.6662 23.8627 86.1077 23.2769 86.7551 22.8961C87.3143 22.5447 88.0501 22.3982 88.9919 22.3982C91.1697 22.3982 92.2586 23.3648 92.2586 25.3565V25.9423L88.933 26.0302C86.6963 26.0888 84.9599 26.5574 83.7238 27.4361C82.37 28.3441 81.7225 29.6622 81.7225 31.361C81.7225 32.6205 82.1934 33.6456 83.1352 34.4658C84.0475 35.2566 85.2836 35.6667 86.8729 35.6667C88.1972 35.6667 89.345 35.4323 90.3162 34.993C91.1697 34.5829 91.9055 34.0264 92.4941 33.2649V35.2566H95.6137V25.5908C95.6137 23.7456 95.1428 22.3396 94.2011 21.373C93.1416 20.26 91.464 19.7035 89.2273 19.7035ZM92.2586 28.3441V29.1057C92.2586 30.2773 91.7878 31.2438 90.9048 32.0054C90.0219 32.7376 88.933 33.1184 87.6381 33.1184C86.9023 33.1184 86.3137 32.9134 85.8428 32.5619C85.3719 32.2104 85.1659 31.7711 85.1659 31.2438C85.1659 29.4279 86.4903 28.4906 89.1684 28.432L92.2586 28.3441Z" fill="#B3B4B5"/>
<path d="M107.806 19.7035C106.334 19.7035 104.951 20.3479 103.686 21.6659V20.1136H100.33V35.2566H103.686V26.1766C103.686 25.1808 103.98 24.3021 104.568 23.5991C105.157 22.8376 105.922 22.4861 106.893 22.4861C108.895 22.4861 109.895 23.6284 109.895 25.9423V35.2566H113.25V26.0009C113.25 24.8879 113.515 24.0385 114.104 23.4234C114.663 22.779 115.34 22.4861 116.164 22.4861C117.341 22.4861 118.165 22.7497 118.695 23.3062C119.195 23.8334 119.46 24.7121 119.46 25.913V35.2566H122.815V25.3272C122.815 23.6577 122.286 22.3103 121.285 21.2559C120.225 20.2014 118.931 19.7035 117.371 19.7035C116.341 19.7035 115.487 19.8792 114.81 20.2307C114.045 20.5822 113.309 21.2266 112.603 22.1639C111.632 20.5236 110.043 19.7035 107.806 19.7035Z" fill="#B3B4B5"/>
<path d="M133.993 19.7035C131.727 19.7035 129.931 20.4651 128.636 22.0174C127.283 23.5405 126.635 25.4151 126.635 27.6704C126.635 30.1894 127.341 32.1518 128.754 33.5871C130.078 34.9637 131.874 35.6667 134.14 35.6667C136.171 35.6667 137.848 35.0809 139.202 33.9385C140.261 33.0013 140.968 31.8004 141.321 30.3944H137.966C137.554 31.2438 137.112 31.8589 136.612 32.2397C135.965 32.7084 135.141 32.9427 134.11 32.9427C132.904 32.9427 131.962 32.5619 131.315 31.8297C130.667 31.0974 130.285 30.0137 130.167 28.6077H141.556C141.556 25.8837 140.938 23.7456 139.732 22.2225C138.407 20.5236 136.494 19.7035 133.993 19.7035ZM134.081 22.4275C136.435 22.4275 137.76 23.6284 138.054 26.0888H130.226C130.432 24.8879 130.844 23.9799 131.462 23.3648C132.109 22.7204 132.963 22.4275 134.081 22.4275Z" fill="#B3B4B5"/>
<path d="M156.666 14.3434V35.2566H160.109V14.3434H156.666Z" fill="#B3B4B5"/>
<path d="M163.783 14.3434V17.2724H170.67V35.2566H174.113V17.2724H181V14.3434H163.783Z" fill="#B3B4B5"/>
</svg>
