<svg width="40" height="39" viewBox="0 0 40 39" fill="none" xmlns="http://www.w3.org/2000/svg">
<path fill-rule="evenodd" clip-rule="evenodd" d="M19.833 0L30.8515 7.48897V15.331L19.833 7.86076L16.1228 10.3762L10.3445 6.44914L19.833 0ZM30.788 30.8864L8.75102 15.9459V8.11697L8.79245 8.11328L30.788 23.0631V30.8864ZM29.2238 32.5743L19.7697 39L8.6875 31.4677V23.6258L19.7697 31.1392L23.4411 28.6501L29.2238 32.5743Z" fill="white"/>
<path fill-rule="evenodd" clip-rule="evenodd" d="M33.1296 29.9966L35.8161 28.1708L35.7708 22.133L39.5758 19.4898L35.7708 16.8785V10.8505L33.0794 9.02148V12.2291V13.8214V15.4136V16.8785L36.8931 19.4898L33.0794 22.1011V26.7506V28.311L33.1296 29.9966ZM6.47478 29.9829L3.84092 28.1929L3.85353 22.1646L0.0166016 19.5215L3.85353 16.942L3.84793 10.8541L6.49862 9.05273L6.52078 15.508V16.942L2.69936 19.5215L6.5208 22.1328L6.47478 29.9829Z" fill="#FFD028"/>
</svg>
