<svg width="179" height="39" viewBox="0 0 179 39" fill="none" xmlns="http://www.w3.org/2000/svg">
<path fill-rule="evenodd" clip-rule="evenodd" d="M19.833 0L30.8515 7.48897V15.331L19.833 7.86076L16.1228 10.3762L10.3445 6.44914L19.833 0ZM30.788 30.8864L8.75102 15.9459V8.11697L8.79245 8.11328L30.788 23.0631V30.8864ZM29.2238 32.5743L19.7697 39L8.6875 31.4677V23.6258L19.7697 31.1392L23.4411 28.6501L29.2238 32.5743Z" fill="white"/>
<path fill-rule="evenodd" clip-rule="evenodd" d="M33.1296 29.9966L35.8161 28.1708L35.7708 22.133L39.5758 19.4898L35.7708 16.8785V10.8505L33.0794 9.02148V12.2291V13.8214V15.4136V16.8785L36.8931 19.4898L33.0794 22.1011V26.7506V28.311L33.1296 29.9966ZM6.47478 29.9829L3.84092 28.1929L3.85353 22.1646L0.0166016 19.5215L3.85353 16.942L3.84793 10.8541L6.49862 9.05273L6.52078 15.508V16.942L2.69936 19.5215L6.5208 22.1328L6.47478 29.9829Z" fill="#FFD028"/>
<path d="M60.5964 10.2265C61.6008 10.0755 62.6051 10 63.6094 10C64.6138 10 65.5864 10.0906 66.5444 10.2718C67.5025 10.453 68.4142 10.7512 69.2771 11.1664C70.5082 11.8308 71.4199 12.6764 72.0098 13.6994C72.5997 14.7224 72.9142 15.636 72.9507 16.4325H66.8979C66.8979 16.0361 66.5761 15.7341 65.9326 15.5303C65.289 15.3264 64.5138 15.2245 63.6094 15.2245C62.7051 15.2245 61.9811 15.2925 61.4643 15.4246C60.9475 15.5567 60.6891 15.8134 60.6891 16.1947C60.6891 16.5759 60.9499 16.7911 61.4691 16.8477C62.6075 17.0289 63.7801 17.1837 64.9867 17.3158C66.7687 17.497 68.3922 17.7424 69.8548 18.0557C70.7666 18.2633 71.5247 18.5729 72.1292 18.9806C72.7338 19.3883 73.1848 19.9659 73.4846 20.7171C73.7844 21.4683 73.9356 22.4686 73.9356 23.7181C73.9356 24.5713 73.8283 25.33 73.6138 25.9869C73.3993 26.6475 73.1165 27.2213 72.7679 27.7158C72.4193 28.2103 72.0366 28.6293 71.6197 28.9729C71.2029 29.3202 70.7861 29.607 70.3716 29.8335C69.4087 30.3356 68.3386 30.6565 67.1612 30.7924C65.9813 30.9283 64.9112 31 63.9507 31C63.3437 31 62.6441 30.9698 61.847 30.9132C61.0498 30.8565 60.2357 30.7131 59.3995 30.4866C58.5634 30.2601 57.7663 29.9015 57.0057 29.4107C56.2476 28.9238 55.5869 28.2518 55.0312 27.3987C54.7118 26.923 54.4607 26.421 54.2779 25.885C54.0926 25.3451 54 24.6505 54 23.7974H60.0528C60.0528 24.5373 60.3868 25.0507 61.0547 25.3414C61.7227 25.632 62.688 25.7755 63.9483 25.7755C64.86 25.7755 65.5815 25.7151 66.1081 25.5905C66.6346 25.4659 67.0076 25.2998 67.2294 25.0922C67.4513 24.8846 67.561 24.6619 67.561 24.4241C67.561 24.0239 67.3245 23.7445 66.8492 23.5785C66.3738 23.4124 65.4475 23.2576 64.0702 23.1141C64.0336 23.1066 63.997 23.0991 63.9605 23.0991C62.3321 22.9103 60.8987 22.714 59.6604 22.5102C58.422 22.3063 57.4737 22.0383 56.8131 21.7061C55.0604 20.7397 54.2828 18.9164 54.4802 16.2437C54.6021 14.9074 54.98 13.8127 55.6089 12.9595C56.2403 12.1064 56.9643 11.4835 57.7858 11.0947C58.656 10.6795 59.5921 10.3888 60.5964 10.2265Z" fill="white"/>
<path d="M73.5503 30.3128L81.2486 10.668H87.7719L95.4604 30.3128H89.2223L88.3691 27.7949H80.6513L79.7884 30.3128H73.5503ZM86.4116 22.0343L84.5102 16.4436L82.6088 22.0343H86.4116Z" fill="white"/>
<path d="M101.669 19.4448L101.42 18.3651V30.3166H96.2842V10.6831H103.624L107.5 22.8762L111.376 10.6831H118.706V30.3166H113.57V18.3651L113.321 19.4448L109.857 30.3128H105.116L101.662 19.4448H101.669Z" fill="white"/>
<path d="M127.2 24.5526H140.124V30.3132H122.063V10.6797H139.978V16.4252H127.2V18.2749H139.281V22.601H127.2V24.5488V24.5526Z" fill="white"/>
<path d="M152.069 10.6831H157.206V30.3166H152.069V10.6831Z" fill="#FFD028"/>
<path d="M178.352 10.6753H161.425L161.422 10.6829H159.187V16.685H166.188V30.3125H171.322V30.305H171.354V16.685H178.352L178.35 16.6775H178.352V10.6753Z" fill="#FFD028"/>
</svg>
