<?xml version="1.0" standalone="no"?>
<!DOCTYPE svg PUBLIC "-//W3C//DTD SVG 20010904//EN"
 "http://www.w3.org/TR/2001/REC-SVG-20010904/DTD/svg10.dtd">
<svg version="1.0" xmlns="http://www.w3.org/2000/svg"
 width="976.000000pt" height="976.000000pt" viewBox="0 0 976.000000 976.000000"
 preserveAspectRatio="xMidYMid meet">
<metadata>
Created by potrace 1.14, written by Peter Selinger 2001-2017
</metadata>
<g transform="translate(0.000000,976.000000) scale(0.100000,-0.100000)"
fill="#000000" stroke="none">
<path d="M4776 9560 c-31 -22 -61 -40 -66 -40 -4 0 -10 -3 -12 -7 -1 -5 -59
-46 -128 -92 -69 -47 -131 -91 -138 -98 -8 -7 -18 -11 -23 -8 -5 4 -9 2 -9 -3
0 -7 -232 -168 -298 -207 -9 -5 -25 -19 -34 -29 -10 -10 -18 -16 -18 -13 0 4
-37 -19 -83 -51 -45 -31 -102 -70 -127 -87 -25 -16 -47 -32 -50 -35 -3 -3 -79
-54 -170 -115 -91 -60 -167 -112 -170 -115 -3 -3 -68 -48 -145 -100 -221 -148
-330 -222 -335 -229 -3 -3 -17 -12 -32 -20 -15 -8 -36 -22 -46 -31 -10 -9 -22
-19 -27 -21 -11 -5 -127 -81 -135 -89 -3 -3 -39 -27 -80 -54 -125 -82 -123
-70 -17 -142 50 -34 97 -66 103 -71 5 -4 18 -12 27 -18 9 -5 51 -34 92 -62 42
-29 78 -53 81 -53 3 0 10 -5 17 -11 7 -6 77 -55 157 -109 80 -54 151 -104 158
-110 6 -6 12 -7 12 -3 0 4 4 3 8 -2 10 -15 170 -125 181 -125 5 0 11 -4 13 -8
2 -5 46 -37 98 -72 52 -35 97 -66 100 -69 3 -3 17 -12 33 -20 15 -8 27 -18 27
-23 0 -4 4 -8 10 -8 5 0 48 -27 95 -60 72 -51 89 -58 106 -50 26 14 90 57 107
70 7 6 61 43 120 83 59 39 110 76 114 82 5 6 8 6 8 0 0 -6 3 -6 8 1 4 6 106
77 227 159 121 81 223 152 226 157 3 6 10 9 15 9 5 -1 17 6 28 15 23 19 53 13
92 -21 16 -14 33 -25 37 -25 5 0 15 -6 22 -12 19 -17 38 -31 58 -43 28 -16
372 -249 377 -255 10 -12 133 -90 140 -90 5 0 10 -4 12 -8 2 -5 93 -69 203
-142 110 -74 202 -138 203 -142 2 -5 9 -8 15 -8 7 0 28 -14 47 -30 19 -17 44
-33 55 -36 11 -4 27 -15 36 -25 9 -11 19 -19 22 -19 7 0 274 -181 294 -199 7
-6 14 -11 17 -11 9 0 231 -153 238 -164 5 -7 8 -7 8 -1 0 6 3 6 8 -1 6 -9 275
-193 320 -219 9 -5 19 -13 22 -16 7 -7 176 -122 201 -135 11 -6 31 -21 45 -33
13 -11 26 -21 29 -21 2 0 47 -29 100 -66 l95 -65 0 949 0 950 -107 73 c-60 41
-139 95 -178 121 -38 26 -75 51 -81 55 -5 4 -17 13 -26 18 -49 30 -324 219
-335 231 -8 8 -20 14 -28 14 -7 0 -15 4 -17 8 -3 8 -99 76 -139 98 -10 6 -27
18 -37 27 -10 10 -24 17 -30 17 -7 0 -12 4 -12 8 0 5 -12 15 -27 23 -16 8 -30
17 -33 20 -6 6 -421 288 -448 304 -9 6 -19 12 -22 15 -3 3 -61 44 -130 90 -69
46 -152 102 -185 125 -33 22 -61 43 -63 48 -2 4 -9 7 -16 7 -7 0 -21 9 -31 20
-10 11 -23 20 -30 20 -7 0 -20 9 -30 20 -10 11 -24 20 -31 20 -7 0 -14 4 -16
8 -1 4 -59 46 -128 92 -141 94 -183 123 -190 130 -3 3 -39 27 -80 54 -41 27
-76 53 -78 58 -2 4 -8 8 -14 8 -6 0 -31 15 -57 33 -25 19 -51 37 -57 40 -6 4
-37 -11 -68 -33z"/>
<path d="M2151 6686 l0 -944 42 -29 c23 -15 44 -31 45 -35 2 -5 10 -8 17 -8 7
0 15 -3 17 -7 5 -11 66 -53 77 -53 5 0 11 -3 13 -7 2 -5 59 -46 128 -92 69
-47 127 -88 128 -93 2 -4 8 -8 14 -8 11 0 101 -61 106 -72 2 -5 8 -8 13 -8 6
0 33 -17 62 -37 29 -21 60 -42 69 -48 9 -5 92 -62 185 -125 278 -190 373 -254
398 -270 13 -8 72 -48 132 -89 59 -41 198 -135 308 -209 110 -74 210 -142 221
-151 12 -9 30 -22 40 -28 98 -65 220 -148 224 -152 3 -3 17 -12 32 -20 15 -8
37 -22 47 -33 11 -10 23 -18 26 -18 3 0 28 -16 55 -35 28 -19 72 -51 100 -70
27 -19 54 -35 60 -35 5 0 10 -4 10 -10 0 -5 6 -10 14 -10 8 0 16 -4 18 -8 2
-5 100 -73 218 -153 118 -79 217 -147 218 -151 2 -5 10 -8 17 -8 7 0 15 -3 17
-7 5 -11 97 -73 108 -73 6 0 10 -4 10 -10 0 -5 6 -10 14 -10 8 0 16 -4 18 -8
3 -8 256 -182 264 -182 3 0 10 -4 17 -10 54 -44 75 -58 95 -64 12 -4 22 -11
22 -16 0 -5 15 -17 33 -26 17 -9 34 -20 37 -23 3 -4 61 -44 130 -90 69 -46
146 -99 173 -118 26 -19 47 -31 47 -27 0 4 8 -3 19 -14 10 -12 21 -22 25 -22
3 0 24 -12 45 -27 49 -35 62 -44 136 -93 33 -22 65 -44 72 -50 7 -5 17 -10 23
-10 5 0 10 -3 10 -8 0 -4 32 -27 70 -51 39 -24 70 -49 70 -54 0 -6 3 -8 6 -4
3 3 36 -16 72 -42 37 -26 82 -56 100 -66 17 -11 32 -23 32 -27 0 -4 7 -8 15
-8 8 0 15 -4 15 -10 0 -5 4 -10 9 -10 6 0 55 -31 111 -70 56 -38 105 -70 110
-70 4 0 10 -4 12 -8 4 -12 155 -112 168 -112 5 0 10 -4 10 -8 0 -10 145 -106
156 -104 5 1 9 423 9 938 l0 936 -28 24 c-16 13 -49 36 -73 50 -24 14 -44 31
-44 37 0 6 -3 7 -6 4 -4 -4 -24 7 -44 23 -21 17 -41 30 -44 30 -4 0 -12 4 -19
10 -32 26 -108 80 -113 80 -2 0 -29 18 -59 40 -30 22 -59 40 -65 40 -5 0 -10
4 -10 8 0 5 -12 15 -27 23 -16 8 -30 17 -33 20 -3 3 -68 48 -145 100 -77 51
-142 96 -145 99 -3 3 -13 10 -22 15 -10 6 -70 46 -135 90 -65 45 -188 128
-273 185 -85 58 -156 108 -158 113 -2 4 -10 7 -17 7 -7 0 -15 4 -17 9 -1 5
-17 17 -34 27 -48 29 -295 197 -310 212 -7 6 -15 12 -18 12 -6 0 -97 61 -106
71 -3 3 -23 16 -45 29 -22 13 -42 27 -45 30 -3 3 -48 35 -100 70 -52 34 -98
68 -102 74 -5 6 -8 7 -8 1 0 -5 -6 -3 -13 5 -7 8 -24 21 -39 29 -15 8 -37 22
-47 33 -11 10 -25 18 -31 18 -5 0 -10 5 -10 10 0 6 -4 10 -10 10 -5 0 -48 27
-95 60 -47 33 -90 60 -95 60 -4 0 -10 4 -12 8 -1 5 -73 55 -158 112 -85 57
-158 109 -162 114 -5 7 -8 7 -8 1 0 -6 -3 -6 -8 1 -6 9 -118 87 -397 275 -44
29 -81 57 -83 61 -2 5 -8 8 -13 8 -6 0 -33 17 -62 38 -29 21 -60 41 -69 45
-10 3 -18 11 -18 17 0 5 -5 10 -10 10 -6 0 -38 20 -73 43 -34 24 -118 82 -187
129 -69 46 -204 138 -300 203 -96 66 -202 139 -235 162 -33 24 -68 46 -77 50
-10 3 -18 9 -18 14 0 5 -7 9 -15 9 -8 0 -15 4 -15 9 0 5 -9 12 -19 16 -11 3
-39 21 -63 40 -23 19 -48 35 -55 35 -6 0 -13 4 -15 8 -1 5 -32 28 -68 52 -36
24 -66 47 -68 52 -2 4 -8 8 -13 8 -8 0 -214 135 -229 150 -14 14 -132 90 -139
90 -5 0 -11 4 -13 8 -4 11 -125 92 -137 92 -6 0 -10 -327 -10 -944z"/>
<path d="M8043 7390 c3 -10 0 -21 -6 -23 -7 -2 -7 -9 0 -21 6 -11 7 -33 3 -52
-4 -19 -4 -34 1 -34 5 0 4 -11 -1 -25 -6 -15 -6 -26 1 -30 5 -4 7 -11 3 -16
-8 -13 -9 -107 -1 -115 3 -3 2 -17 -3 -30 -6 -15 -6 -24 0 -24 6 0 6 -9 0 -25
-6 -15 -6 -26 1 -30 5 -4 7 -11 4 -16 -6 -9 -9 -94 -5 -114 1 -5 2 -14 1 -19
-3 -13 -3 -129 -1 -141 1 -5 1 -14 0 -20 -4 -23 -3 -115 2 -120 3 -4 2 -22 -2
-41 -4 -18 -4 -34 1 -34 5 0 4 -11 -1 -25 -6 -15 -6 -26 1 -30 5 -4 7 -11 3
-16 -8 -13 -9 -107 -2 -115 4 -3 3 -18 -1 -32 -5 -15 -5 -36 -1 -47 4 -11 3
-25 -2 -32 -5 -7 -5 -14 1 -17 7 -4 7 -15 1 -31 -6 -15 -6 -27 1 -30 5 -4 7
-11 3 -16 -7 -13 -9 -107 -2 -114 3 -3 2 -22 -2 -41 -5 -19 -4 -37 1 -40 5 -3
7 -10 4 -15 -6 -8 -9 -121 -5 -144 1 -5 2 -14 1 -19 -4 -19 -4 -152 0 -166 5
-17 24 -40 34 -40 4 0 24 -13 45 -30 21 -16 42 -30 48 -30 6 0 12 -3 14 -8 2
-4 53 -41 113 -82 61 -40 112 -76 115 -79 3 -3 13 -10 22 -16 46 -27 133 -90
136 -97 2 -4 8 -8 12 -8 11 0 144 -92 148 -102 2 -4 8 -8 13 -8 5 0 41 -23 81
-51 40 -28 88 -60 106 -72 l34 -20 -34 -28 c-18 -16 -37 -29 -41 -29 -4 0 -13
-5 -20 -11 -27 -24 -520 -359 -528 -359 -5 0 -9 -4 -9 -8 0 -5 -18 -18 -40
-31 -22 -12 -45 -27 -52 -34 -7 -7 -53 -39 -102 -72 -91 -62 -109 -85 -95
-121 4 -13 3 -26 -3 -32 -6 -6 -6 -12 1 -16 7 -4 7 -15 1 -31 -6 -15 -6 -27 1
-30 5 -4 7 -11 4 -16 -7 -10 -8 -102 -3 -161 2 -21 1 -38 -2 -38 -7 0 -4 -70
3 -77 3 -3 2 -16 -3 -29 -6 -15 -6 -24 0 -24 6 0 6 -9 0 -25 -6 -15 -6 -26 1
-30 5 -4 7 -11 3 -16 -8 -13 -9 -107 -1 -115 3 -3 2 -17 -3 -30 -6 -15 -6 -24
0 -24 6 0 6 -9 0 -25 -6 -15 -6 -26 1 -30 5 -4 7 -11 4 -16 -7 -10 -8 -102 -3
-161 2 -21 1 -38 -2 -38 -7 0 -4 -70 3 -77 3 -3 2 -16 -3 -29 -6 -15 -6 -24 0
-24 6 0 6 -9 0 -25 -6 -15 -6 -26 1 -30 5 -4 7 -11 3 -16 -8 -13 -9 -107 -1
-115 3 -3 2 -17 -3 -30 -6 -15 -6 -24 0 -24 5 0 6 -9 1 -22 -4 -12 -5 -37 -1
-55 5 -18 4 -33 0 -33 -4 0 -4 -16 0 -35 5 -24 4 -35 -4 -35 -7 0 -7 -3 -1 -8
8 -6 12 -85 15 -299 0 -13 5 -23 11 -23 9 0 152 93 169 110 10 10 69 50 75 50
2 0 24 15 48 33 46 34 51 37 132 89 28 18 52 35 55 38 4 5 99 68 158 106 2 2
3 103 2 226 0 123 -3 451 -5 729 -2 278 -1 509 3 515 4 5 15 14 24 19 9 6 62
42 118 80 55 39 108 75 117 80 9 6 28 20 41 32 14 11 36 27 51 35 14 7 28 15
31 19 3 3 34 25 70 50 36 24 69 48 75 52 5 4 55 39 110 77 55 38 105 73 111
78 5 5 21 15 35 22 13 7 26 16 29 20 3 3 27 21 53 39 l49 33 -24 16 c-13 9
-25 19 -28 22 -3 4 -14 12 -26 18 -12 6 -77 50 -145 97 -68 47 -132 91 -143
98 -10 6 -24 17 -30 23 -6 5 -18 13 -26 17 -8 4 -82 54 -165 111 -82 58 -191
133 -242 168 l-92 63 -1 730 0 731 -132 89 c-73 48 -134 92 -136 97 -2 4 -8 8
-13 8 -10 0 -103 62 -107 73 -2 4 -10 7 -18 7 -8 0 -14 5 -14 10 0 6 -7 10
-15 10 -9 0 -18 7 -21 15 -4 8 -10 15 -15 15 -5 0 -44 25 -88 55 -44 30 -83
55 -86 55 -4 0 -5 -9 -2 -20z"/>
<path d="M1575 7388 c-11 -6 -22 -14 -25 -17 -3 -4 -30 -22 -60 -41 -30 -19
-57 -37 -60 -40 -3 -3 -52 -37 -110 -75 -58 -39 -107 -72 -110 -75 -3 -3 -32
-23 -65 -45 -33 -22 -61 -43 -63 -47 -2 -5 -8 -8 -13 -8 -11 0 -63 -35 -89
-60 -15 -13 -16 -89 -15 -748 l1 -732 -205 -138 c-113 -75 -208 -140 -211
-143 -3 -4 -26 -20 -52 -35 -80 -49 -343 -228 -346 -236 -2 -5 -8 -8 -13 -8
-10 0 -62 -34 -86 -56 -13 -13 1 -34 23 -34 7 0 14 -4 16 -8 2 -5 53 -42 113
-83 61 -41 115 -78 120 -82 30 -25 228 -157 235 -157 5 0 10 -3 12 -7 5 -13
76 -63 87 -63 6 0 11 -4 11 -8 0 -4 25 -23 55 -41 30 -18 55 -37 55 -42 0 -5
5 -9 11 -9 11 0 74 -42 149 -99 l25 -19 0 -336 c0 -217 -4 -336 -10 -336 -6 0
-6 -3 0 -8 14 -10 14 -272 0 -272 -7 0 -7 -3 0 -8 14 -10 14 -355 0 -364 -7
-5 -6 -8 1 -8 7 0 10 -22 8 -59 -1 -45 2 -63 15 -74 9 -8 93 -65 186 -128 94
-63 172 -116 175 -119 11 -11 250 -170 256 -170 3 0 4 7 0 15 -3 8 -2 15 2 15
4 0 7 18 7 40 0 22 -3 40 -7 40 -4 0 -5 6 -3 13 10 26 12 77 3 77 -5 0 -6 5
-2 12 11 17 11 138 1 138 -5 0 -5 5 -1 12 4 6 9 262 10 567 1 306 3 648 4 760
1 173 -1 206 -14 213 -8 5 -22 15 -30 23 -8 8 -17 15 -21 15 -7 0 -165 109
-183 127 -7 7 -19 13 -27 13 -7 0 -15 4 -17 8 -1 4 -61 48 -133 97 -71 49
-164 112 -205 140 -41 28 -124 84 -183 125 -59 40 -104 77 -100 81 4 4 114 78
243 165 129 87 237 161 238 166 2 4 7 8 12 8 4 0 68 40 141 90 74 49 142 96
153 102 10 7 36 25 57 41 21 15 43 27 48 27 5 0 12 8 16 18 9 24 5 1902 -5
1902 -3 0 -14 -6 -25 -12z"/>
<path d="M2138 3868 c-3 -11 -3 -1811 1 -1873 1 -13 15 -28 38 -40 20 -11 41
-25 47 -30 6 -6 81 -58 166 -115 85 -57 157 -107 158 -112 2 -4 8 -8 14 -8 6
0 41 -23 79 -50 38 -27 73 -50 78 -50 5 0 11 -3 13 -7 2 -5 50 -39 108 -78 58
-38 107 -72 110 -75 3 -3 39 -27 80 -55 41 -27 77 -52 80 -55 3 -3 109 -74
235 -159 127 -85 232 -158 233 -163 2 -4 8 -8 12 -8 5 0 61 -36 124 -80 64
-44 120 -80 125 -80 5 0 11 -4 13 -8 2 -5 82 -62 178 -127 96 -65 229 -155
295 -200 257 -176 286 -195 291 -195 3 0 11 -6 18 -12 8 -7 24 -20 36 -28 12
-8 40 -27 61 -42 21 -16 43 -28 49 -28 5 0 10 -4 10 -9 0 -25 37 -15 107 32
43 28 80 54 83 57 5 6 201 139 228 155 31 19 177 118 182 124 3 4 43 31 90 61
47 30 87 57 90 60 3 4 39 28 80 55 41 28 77 52 80 55 5 5 49 35 82 55 31 19
193 130 198 136 3 3 20 14 38 24 17 11 32 23 32 27 0 4 5 8 10 8 9 0 154 94
170 110 3 3 13 10 22 15 26 16 162 108 168 114 3 3 13 11 22 16 10 6 76 51
148 100 72 50 142 96 156 103 13 7 24 17 24 23 0 5 6 9 14 9 8 0 21 6 28 13 7
6 40 30 73 52 33 22 64 43 70 48 5 4 32 22 59 40 27 18 51 37 52 43 3 8 -60
52 -146 104 -14 8 -27 18 -30 21 -3 3 -117 81 -255 174 -137 93 -252 171 -255
174 -3 3 -13 11 -22 16 -23 13 -431 288 -438 295 -12 13 -236 160 -243 160 -6
0 -395 -259 -432 -287 -5 -5 -30 -21 -55 -38 -25 -16 -46 -33 -48 -37 -2 -5
-9 -8 -16 -8 -7 0 -21 -9 -31 -20 -10 -11 -21 -17 -25 -15 -5 3 -10 1 -12 -3
-1 -5 -19 -20 -40 -33 -20 -13 -77 -52 -127 -87 -49 -34 -95 -62 -100 -62 -10
0 -175 105 -202 129 -8 6 -43 30 -79 53 -36 23 -68 46 -72 52 -4 6 -8 7 -8 3
0 -5 -7 -2 -15 5 -33 30 -45 38 -54 38 -5 0 -11 3 -13 8 -5 11 -155 112 -166
112 -6 0 -12 4 -14 8 -1 5 -66 51 -143 102 -77 52 -142 98 -143 102 -2 4 -8 8
-12 8 -5 0 -48 27 -95 60 -47 33 -88 60 -90 60 -3 0 -13 7 -22 15 -18 15 -35
26 -234 159 -57 38 -105 73 -107 78 -2 4 -7 8 -12 8 -9 0 -261 169 -270 180
-3 4 -9 9 -15 11 -13 5 -318 210 -325 218 -3 3 -13 11 -22 16 -18 10 -305 204
-323 218 -5 4 -48 33 -95 64 -47 30 -95 65 -107 76 -13 11 -23 16 -23 11 0 -5
-4 -3 -9 4 -7 11 -9 11 -13 0z"/>
</g>
</svg>
